<?xml version="1.0" encoding="utf-8"?>
<!-- Generator: Adobe Illustrator 23.0.0, SVG Export Plug-In . SVG Version: 6.00 Build 0)  -->
<svg version="1.1"
	 id="Layer_1" inkscape:version="0.91 r13725" sodipodi:docname="Visa_2006.svg" xmlns:cc="http://creativecommons.org/ns#" xmlns:dc="http://purl.org/dc/elements/1.1/" xmlns:inkscape="http://www.inkscape.org/namespaces/inkscape" xmlns:rdf="http://www.w3.org/1999/02/22-rdf-syntax-ns#" xmlns:sodipodi="http://sodipodi.sourceforge.net/DTD/sodipodi-0.dtd" xmlns:svg="http://www.w3.org/2000/svg"
	 xmlns="http://www.w3.org/2000/svg" xmlns:xlink="http://www.w3.org/1999/xlink" x="0px" y="0px" viewBox="0 0 999.2 776"
	 style="enable-background:new 0 0 999.2 776;" xml:space="preserve">
<style type="text/css">
	.st0{fill:#20C4F4;}
</style>
<sodipodi:namedview  bordercolor="#666666" borderopacity="1" gridtolerance="10" guidetolerance="10" id="namedview19" inkscape:current-layer="Layer_1" inkscape:cx="34.690897" inkscape:cy="131.15483" inkscape:pageopacity="0" inkscape:pageshadow="2" inkscape:window-height="705" inkscape:window-maximized="1" inkscape:window-width="1366" inkscape:window-x="-8" inkscape:window-y="-8" inkscape:zoom="0.35355339" objecttolerance="10" pagecolor="#ffffff" showgrid="false">
	</sodipodi:namedview>
<g>
	<path class="st0" d="M223.7,510.8l-4.5-28.2H118.1l-16.2,28.2H-1.2l155.4-245.6h119l53.7,245.6H223.7z M198.6,339.5h-0.7
		l-46.1,83.2h58.5L198.6,339.5z"/>
	<path class="st0" d="M385,510.8l38.2-183.7h-89.8l12.7-61.9h276.5l-12.7,61.9h-89.8L482,510.8H385z"/>
	<path class="st0" d="M860.3,510.8l36.5-175.4H896l-88,175.4h-73.6l-15.1-175.4h-0.7l-36.5,175.4h-88L645,265.2h136.5L792.2,408h0.7
		l69.8-142.7h136.5l-50.9,245.6H860.3z"/>
</g>
</svg>
