<?xml version="1.0" encoding="utf-8"?>
<!-- Generator: Adobe Illustrator 23.0.0, SVG Export Plug-In . SVG Version: 6.00 Build 0)  -->
<svg version="1.1" id="Layer_1" xmlns="http://www.w3.org/2000/svg" xmlns:xlink="http://www.w3.org/1999/xlink" x="0px" y="0px"
	 viewBox="0 0 50 50" style="enable-background:new 0 0 50 50;" xml:space="preserve">
<style type="text/css">
	.st0{fill:#20C4F4;}
</style>
<g>
	<path class="st0" d="M0,22.3c0.2-0.3,0.4-0.5,0.7-0.8c7-7,13.9-13.9,20.9-20.9C22,0.2,22.4,0,23,0c8.6,0,17.1,0,25.7,0
		C49.8,0,50,0.2,50,1.3c0,1.4,0,2.7,0,4.1c0,0.5-0.2,1-0.5,1.3C46,10.2,42.6,13.6,39.1,17c-0.3,0.3-0.3,0.5-0.3,0.8
		c0.3,1.5,1.7,2.8,3.3,2.9c2.2,0.1,4.4,0,6.5,0c0.2,0,0.3,0,0.5,0c0.5,0.1,0.8,0.4,0.8,0.9c0,1.6,0,3.2,0,4.8c0,0.3-0.2,0.6-0.4,0.8
		C42.4,34.6,35.3,42,28.2,49.4c-0.2,0.2-0.4,0.3-0.6,0.5C18.5,50,9.2,50,0,50c0-2,0-4,0-6.1c0.2-0.2,0.4-0.5,0.6-0.7
		c3.3-3.3,6.6-6.6,9.9-9.9c0.1-0.1,0.3-0.3,0.3-0.5c0-0.6,0-1.2-0.1-1.7c-0.5-1.7-1.9-2.8-3.8-2.8s-3.8,0-5.8,0
		c-0.5,0-0.9-0.1-1.2-0.6C0,25.9,0,24.1,0,22.3z M47.1,1.7c-0.2,0-0.3,0-0.4,0c-7.8,0-15.7,0-23.5,0c-0.2,0-0.5,0.1-0.7,0.3
		C16.1,8.4,9.7,14.8,3.3,21.3c-0.1,0.1-0.2,0.2-0.4,0.4c0.3,0,0.4,0,0.6,0c7.7,0,15.4,0,23.1,0c0.4,0,0.7-0.1,0.9-0.4
		c6.4-6.4,12.8-12.8,19.2-19.2C46.8,2,46.9,1.9,47.1,1.7z M37.4,18.8C37.2,19,37.1,19,37,19.1c-2.9,2.9-5.8,5.7-8.6,8.6
		c-0.4,0.4-0.8,0.6-1.4,0.6c-1.8,0-3.7,0-5.5,0c-2.5,0-4,1.6-4.1,4.1c0,2.3,0,4.6,0,6.9c0,0.4,0,0.9,0.2,1.3
		c0.5,1.8,1.9,2.8,3.8,2.8c1.7,0,3.4,0,5,0c0.5,0,0.8-0.1,1.1-0.5c6.4-6.7,12.9-13.4,19.3-20.1c0.1-0.1,0.1-0.1,0.2-0.3
		c-0.1,0-0.2,0-0.3,0c-1.4,0-2.8,0-4.2,0c-1.3,0-2.5-0.4-3.5-1.2C38.3,20.6,37.7,19.8,37.4,18.8z M1.7,48.3c8.3,0,16.6,0,24.9,0
		c0-1.1,0-2.2,0-3.3c-1.8,0-3.6,0-5.3,0c-3,0-5.4-2.2-5.5-5.2c-0.1-2.6-0.1-5.3,0-8c0.1-2.6,2-4.8,4.6-5.1c1.6-0.2,3.1-0.1,4.7-0.1
		c0.5,0,1,0,1.5,0c0-1.1,0-2.2,0-3.3c-8.3,0-16.6,0-24.9,0c0,1.1,0,2.2,0,3.3c0.2,0,0.4,0,0.5,0c1.7,0,3.4,0,5,0
		c2.8,0.1,5.2,2.4,5.2,5.1c0.1,2.7,0.1,5.4,0,8.1c-0.1,2.6-2.1,4.8-4.6,5C6,45.1,4.2,45,2.3,45c-0.2,0-0.4,0-0.6,0
		C1.7,46.1,1.7,47.2,1.7,48.3z M48.3,3c-0.1,0-0.1-0.1-0.2-0.1c-0.1,0.2-0.2,0.3-0.4,0.5c-6,6-12,12-18,18c-0.5,0.5-1.1,0.9-1.4,1.5
		c-0.2,0.6-0.1,1.3-0.1,2c0,0.1,0,0.3,0,0.5c0.1-0.1,0.2-0.1,0.2-0.2C34.9,18.7,41.5,12.1,48,5.6c0.1-0.1,0.2-0.2,0.2-0.4
		C48.3,4.5,48.3,3.8,48.3,3z M48.3,23.8c-0.1,0-0.1-0.1-0.2-0.1c-0.1,0.1-0.2,0.3-0.3,0.4C41.4,30.9,35,37.6,28.6,44.3
		c-0.1,0.1-0.2,0.2-0.2,0.3c0,0.8,0,1.6,0,2.5c1.1-1.2,2.1-2.2,3.1-3.3c5.5-5.7,11.1-11.5,16.6-17.2c0.1-0.1,0.2-0.3,0.2-0.4
		C48.3,25.4,48.3,24.6,48.3,23.8z M3,43.3C3,43.3,3.1,43.3,3,43.3c1.4,0,2.7,0.1,4,0c1.9-0.1,3.2-1.1,3.6-2.8
		c0.2-0.7,0.1-1.5,0.1-2.2c0-0.9,0-1.9,0-2.8C8.2,38.1,5.6,40.7,3,43.3z"/>
	<path class="st0" d="M25.1,36.4c-0.1,0.3-0.2,0.5-0.3,0.6c-0.3,0.3-0.5,0.6-0.8,0.9c-0.4,0.4-0.8,0.4-1.2,0c-0.3-0.3-0.3-0.8,0-1.2
		c0.3-0.3,0.5-0.7,0.9-0.9c0.2-0.1,0.6-0.2,0.9-0.1C24.8,35.9,24.9,36.2,25.1,36.4z"/>
	<path class="st0" d="M33.2,27.7c-0.2-0.1-0.5-0.2-0.6-0.5c-0.1-0.2-0.1-0.6,0-0.8c0.3-0.4,0.6-0.7,1-1.1c0.3-0.3,0.7-0.2,1,0
		s0.5,0.6,0.3,0.9c-0.4,0.5-0.9,0.9-1.3,1.4C33.6,27.7,33.4,27.7,33.2,27.7z"/>
	<path class="st0" d="M30.9,28.6c0.2,0.1,0.5,0.2,0.6,0.5c0.1,0.2,0.1,0.6,0,0.8c-0.3,0.4-0.7,0.8-1.1,1.2c-0.3,0.2-0.6,0.2-0.9,0
		s-0.4-0.6-0.2-0.9c0.4-0.5,0.8-0.9,1.3-1.4C30.6,28.7,30.7,28.7,30.9,28.6z"/>
	<path class="st0" d="M28.4,32.9c-0.1,0.3-0.2,0.5-0.3,0.6c-0.3,0.3-0.6,0.6-0.9,0.9c-0.4,0.3-0.8,0.3-1.1,0c-0.3-0.3-0.3-0.8,0-1.1
		s0.6-0.7,1-1c0.2-0.1,0.6-0.2,0.9-0.1C28.1,32.4,28.2,32.7,28.4,32.9z"/>
	<path class="st0" d="M36.7,24.2c-0.4,0-0.8-0.4-0.8-0.9c0-0.4,0.4-0.8,0.8-0.8c0.5,0,0.8,0.4,0.8,0.8
		C37.5,23.8,37.1,24.2,36.7,24.2z"/>
	<path class="st0" d="M21.7,40c0,0.5-0.4,0.8-0.8,0.8s-0.8-0.4-0.8-0.8c0-0.5,0.4-0.8,0.8-0.8C21.3,39.2,21.7,39.5,21.7,40z"/>
</g>
</svg>
