<?xml version="1.0" encoding="utf-8"?>
<!-- Generator: Adobe Illustrator 23.0.0, SVG Export Plug-In . SVG Version: 6.00 Build 0)  -->
<svg version="1.1" id="Layer_1" xmlns="http://www.w3.org/2000/svg" xmlns:xlink="http://www.w3.org/1999/xlink" x="0px" y="0px"
	 viewBox="0 0 50 50" style="enable-background:new 0 0 50 50;" xml:space="preserve">
<style type="text/css">
	.st0{fill:#20C4F4;}
</style>
<g>
	<path class="st0" d="M37.9,0c1,0.4,1.3,1.1,1.3,2.2c0,15.2,0,30.3,0,45.5c0,0.2,0,0.4,0,0.7c0.2,0,0.4,0,0.6,0c3,0,6.1,0,9.1,0
		c0.5,0,0.9,0.1,1.2,0.6c0,0.4,0,0.7,0,1.1c-16.7,0-33.3,0-50,0c0-0.4,0-0.7,0-1.1c0.3-0.5,0.7-0.6,1.2-0.6c3,0,6.1,0,9.1,0
		c0.2,0,0.4,0,0.6,0c0-0.2,0-0.5,0-0.7c0-15.2,0-30.4,0-45.5c0-1,0.3-1.8,1.3-2.2C20.7,0,29.3,0,37.9,0z M34.1,48.3
		c0-14.5,0-28.9,0-43.3C28,5,21.9,5,15.9,5c0,14.4,0,28.9,0,43.3C22,48.3,28,48.3,34.1,48.3z M12.5,1.7c0,15.6,0,31.1,0,46.6
		c0.6,0,1.1,0,1.6,0c0-0.2,0-0.4,0-0.6c0-14.4,0-28.7,0-43.1c0-1,0.2-1.3,1.3-1.3c6.4,0,12.7,0,19.1,0c1.1,0,1.3,0.2,1.3,1.3
		c0,14.4,0,28.7,0,43.1c0,0.2,0,0.4,0,0.6c0.6,0,1.1,0,1.6,0c0-15.6,0-31.1,0-46.6C29.1,1.7,20.9,1.7,12.5,1.7z"/>
	<path class="st0" d="M32.5,20.8c-0.5,0-1,0-1.6,0c0-3.3,0-6.7,0-10c-0.4-0.1-0.8-0.2-1-0.4C29.2,10,28.6,9.5,28.1,9
		C27,7.7,25.6,7.3,24,7.6c-0.7,0.1-1.3,0.5-1.7,1c-0.8,1-1.7,1.9-3.1,2.1c0,7,0,13.9,0,20.9c3.9,0,7.7,0,11.7,0c0-0.6,0-1.2,0-1.8
		c0-0.3,0-0.5,0-0.8c0.1-0.4,0.3-0.7,0.8-0.7c0.4,0,0.7,0.2,0.8,0.6c0,0.2,0.1,0.3,0.1,0.5c0,1,0,1.9,0,2.9c0,0.8-0.3,1.1-1.1,1.1
		c-4.3,0-8.6,0-12.9,0c-0.8,0-1.1-0.3-1.1-1.1c0-7.3,0-14.6,0-22c0-0.8,0.2-1,1-1.1c1-0.1,1.7-0.6,2.3-1.4c1.8-2.2,5.3-2.6,7.5-0.8
		c0.4,0.3,0.7,0.6,1,1c0.6,0.7,1.3,1.1,2.2,1.2c0.6,0.1,0.9,0.3,0.9,1c0,3.5,0,7,0,10.4C32.5,20.7,32.5,20.7,32.5,20.8z"/>
	<path class="st0" d="M25,46.7c-2.1,0-4.2,0-6.3,0c-0.9,0-1.2-0.3-1.2-1.2c0-3.1,0-6.2,0-9.3c0-0.9,0.3-1.2,1.2-1.2
		c4.2,0,8.5,0,12.7,0c0.9,0,1.2,0.3,1.2,1.2c0,3.1,0,6.2,0,9.3c0,0.9-0.3,1.2-1.2,1.2C29.2,46.7,27.1,46.7,25,46.7z M30.8,36.7
		c-3.9,0-7.7,0-11.6,0c0,2.8,0,5.5,0,8.3c3.9,0,7.7,0,11.6,0C30.8,42.2,30.8,39.5,30.8,36.7z"/>
	<path class="st0" d="M30.8,23.3c1.3,0,2.5,1.1,2.5,2.4c0,0.5-0.3,0.8-0.7,0.9c-0.4,0-0.8-0.2-0.9-0.7v-0.1
		c-0.1-0.6-0.4-0.9-0.9-0.8c-0.5,0-0.7,0.4-0.8,1c-0.1,1.2-0.8,2-1.9,2.3c-0.2,0.1-0.5,0.1-0.7,0c-0.4-0.1-0.6-0.4-0.6-0.8
		s0.2-0.8,0.6-0.8c0.8-0.1,1-0.5,1.1-1.2C28.5,24.2,29.6,23.3,30.8,23.3z"/>
</g>
</svg>
