<?xml version="1.0" encoding="utf-8"?>
<!-- Generator: Adobe Illustrator 23.0.0, SVG Export Plug-In . SVG Version: 6.00 Build 0)  -->
<svg version="1.1" id="Layer_1" xmlns="http://www.w3.org/2000/svg" xmlns:xlink="http://www.w3.org/1999/xlink" x="0px" y="0px"
	 viewBox="0 0 50 50" style="enable-background:new 0 0 50 50;" xml:space="preserve">
<style type="text/css">
	.st0{fill:#20C4F4;}
</style>
<g>
	<path class="st0" d="M50,11.5c-0.3,0.6-0.8,0.8-1.4,0.8c-2.3,0-4.6,0-6.9,0c-0.3,0-0.5,0.1-0.6,0.4c-0.3,0.6-0.6,1.2-0.9,1.9
		c-0.6,1.3-1.7,1.9-3.1,1.9c-1.3,0-2.5,0-3.8,0c-0.5,0-1.1,0.1-1.6,0.3c-1.7,0.5-3.4,1.1-5.2,1.5c-1.5,0.3-3.1,0.2-4.7,0.3
		c-0.7,0-1.4,0-2.1,0c-0.1,0.4-0.1,0.7-0.2,1c0.1,0,0.1,0,0.2,0c0.9,0,1.3,0.6,1.1,1.4c-0.3,1.3-0.7,2.6-1,4c-0.1,0.5-0.4,0.8-1,0.9
		c-0.1,0-0.3,0.2-0.3,0.3c-0.2,1.3-0.4,2.6-0.6,3.9c0,0.3,0,0.5,0.3,0.6c2,0.8,3.9,1.7,5.9,2.5c0.7,0.3,0.9,0.7,0.9,1.4
		c0,2.6,0,5.2,0,7.8c0,2-1.3,3.3-3.3,3.3c-5.4,0-10.9,0-16.3,0c-2,0-3.3-1.3-3.3-3.3c0-2.7,0-5.3,0-8c0-0.5,0.2-0.9,0.7-1.2
		c1.1-0.8,2.2-1.6,3.2-2.4c0.2-0.2,0.4-0.4,0.4-0.7C7,26.4,7.5,22.7,8.1,19c0-0.1,0-0.3,0-0.4c-0.5,0-1,0-1.5,0c-1.1,0-2.1,0-3.2,0
		c-1.8,0-2.8-0.8-3.4-2.5c0,0,0-0.1-0.1-0.1c0-3.1,0-6.2,0-9.3C0.8,4.5,1.5,4,3.8,4c6.4,0,12.7,0,19.1,0c0.9,0,1.9,0.1,2.8,0.2
		c2,0.2,3.8,0.9,5.7,1.6c0.7,0.2,1.4,0.4,2.1,0.3c1.2,0,2.4,0,3.6,0c1.4,0,2.4,0.6,3,1.9c0.3,0.6,0.6,1.2,0.9,1.8
		c0.2,0.4,0.4,0.5,0.8,0.5c2.3,0,4.6,0,6.8,0c0.6,0,1.1,0.2,1.3,0.8C50,11.2,50,11.4,50,11.5z M31.3,7.9c-0.1,0-0.1-0.1-0.1-0.1
		c-0.3-0.1-0.7-0.2-1-0.3C27.3,6.4,24.5,6,21.5,6c-6,0.1-12,0-18,0C2.4,6,2.1,6.4,2.1,7.5c0,2.5,0,5,0,7.5c0,1.1,0.3,1.5,1.5,1.5
		c6.5,0,13,0,19.4,0c0.7,0,1.4-0.1,2.1-0.1c1.7-0.2,3.3-0.7,4.9-1.3c1.2-0.4,1.2-0.4,1.2-1.7C31.3,11.5,31.3,9.7,31.3,7.9z
		 M4.2,35.2c0,2.3,0,4.6,0,6.9c0,1.1,0.3,1.4,1.4,1.4c5.3,0,10.6,0,15.9,0c1.1,0,1.4-0.4,1.4-1.4c0-2.1,0-4.3,0-6.4
		c0-0.2,0-0.3,0-0.5C16.6,35.2,10.4,35.2,4.2,35.2z M10.3,18.6C9.6,22.6,9,26.7,8.4,30.7c-0.1,0.6-0.3,1.1-0.8,1.5
		c-0.4,0.3-0.8,0.6-1.2,0.9c4.2,0,8.2,0,12.2,0c-0.7-0.4-1.5-0.7-2.2-1c-0.6-0.3-0.8-0.7-0.7-1.3c0.5-3,0.9-6,1.4-9
		c0.2-1.1,0.3-2.1,0.5-3.2C15.1,18.6,12.7,18.6,10.3,18.6z M33.4,8.1c0,2.1,0,4.1,0,6.2c1.4,0,2.7,0,4,0c0.3,0,0.6-0.3,0.8-0.6
		c0.4-0.7,0.8-1.5,1.1-2.3c0.1-0.1,0.1-0.3,0-0.4c-0.4-0.8-0.7-1.5-1.1-2.3c-0.2-0.3-0.6-0.6-0.9-0.6C36,8.1,34.7,8.1,33.4,8.1z"/>
	<path class="st0" d="M8.4,10.2c-1,0-1.9,0-2.9,0c-0.4,0-0.8-0.1-1.1-0.5C4,9.1,4.3,8.4,4.9,8.2c0.2-0.1,0.4-0.1,0.7-0.1
		c1.8,0,3.6,0,5.5,0c0.9,0,1.4,0.4,1.4,1c0,0.7-0.5,1.1-1.4,1.1C10.2,10.2,9.3,10.2,8.4,10.2z"/>
	<path class="st0" d="M8.3,14.4c-1,0-2,0-3,0c-0.7,0-1.2-0.5-1.1-1.1c0.1-0.5,0.5-0.9,1-0.9c2.1,0,4.1,0,6.2,0c0.6,0,1.1,0.5,1.1,1
		c0,0.6-0.4,1-1.1,1C10.4,14.4,9.3,14.4,8.3,14.4C8.3,14.4,8.3,14.4,8.3,14.4z"/>
</g>
</svg>
