<?xml version="1.0" encoding="utf-8"?>
<!-- Generator: Adobe Illustrator 23.0.0, SVG Export Plug-In . SVG Version: 6.00 Build 0)  -->
<svg version="1.1" id="Layer_1" xmlns="http://www.w3.org/2000/svg" xmlns:xlink="http://www.w3.org/1999/xlink" x="0px" y="0px"
	 viewBox="0 0 50 50" style="enable-background:new 0 0 50 50;" xml:space="preserve">
<style type="text/css">
	.st0{fill:#20C4F4;}
</style>
<g>
	<path class="st0" d="M0,12.7c0.6-1.4,1.1-2.8,1.7-4.2c1-2.5,2-5.1,2.9-7.6C4.9,0.2,5.1,0,5.9,0c2.5,0,5,0,7.6,0
		c0.8,0,1,0.2,1.3,0.9c1.5,3.8,3,7.7,4.4,11.5c0.4,1,0,1.6-1.1,1.6c-4,0-8.1,0-12.1,0c-0.2,0-0.4,0-0.7,0c0,0.2,0,0.4,0,0.5
		c0,1.2,0,2.5,0,3.7c0,0.8-0.7,1.3-1.4,1c-0.5-0.2-0.6-0.6-0.6-1.1c0-1.3,0-2.7,0-4c0,0,0,0,0-0.1c-0.7,0-1.4,0-2.1,0
		c-0.6,0-1-0.2-1.3-0.7C0,13.1,0,12.9,0,12.7z M16.9,12c0-0.1,0-0.2,0-0.2c-1.2-3.2-2.5-6.4-3.7-9.5C13.1,2,12.9,2,12.7,2
		c-2,0-4,0-6,0C6.4,2,6.2,2.1,6.1,2.4c-1.2,3.1-2.4,6.2-3.5,9.2c0,0.1-0.1,0.3-0.1,0.4C7.3,12,12.1,12,16.9,12z"/>
	<path class="st0" d="M3.7,50c-0.7-0.3-0.8-0.6-0.8-1.4c0.2-2.4,2.3-4.4,4.8-4.5c0.3,0,0.6,0,1,0c0-0.2,0-0.4,0-0.6
		c0-8.7,0-17.4,0-26.1c0-0.2,0-0.5,0.1-0.7C8.9,16.3,9.3,16,9.7,16s0.8,0.3,0.9,0.8c0,0.2,0,0.5,0,0.7c0,8.7,0,17.3,0,26
		c0,0.2,0,0.4,0,0.7c0.5,0,1,0,1.5,0.1c2.2,0.4,3.8,2.1,4.1,4.3c0.1,0.8-0.1,1.1-0.8,1.5C11.5,50,7.6,50,3.7,50z M5.1,48
		c3,0,5.9,0,9,0c-0.5-1.2-1.3-1.8-2.5-1.9C10.3,46,9,46,7.7,46.1C6.4,46.2,5.4,47,5.1,48z"/>
	<path class="st0" d="M50,32.3c0-2-1.3-3.7-3.1-4.2c-0.4-0.1-0.5-0.3-0.5-0.7c0-0.9-0.1-1.7-0.5-2.5c-0.9-1.8-2.4-2.6-4.4-2.6
		s-3.9,0-5.9,0c-3.5,0-12.9,0-14.7,0c-1.9,0-3.4,0.8-4.3,2.6c-0.4,0.8-0.5,1.7-0.5,2.7c0,0.2,0,0.4-0.3,0.5
		c-2.2,0.8-3.3,2.3-3.3,4.7c0,3.2,0,6.4,0,9.6c0,1.2,0.3,1.4,1.4,1.4c11.5,0,22.9,0,34.4,0c0.1,0,0.2,0,0.3,0c0.7,0,1.1-0.4,1.1-1.1
		C50,39.2,50,35.8,50,32.3z M19.8,41.2c0,0.2,0,0.4,0,0.6c-1.8,0-3.4,0-5.2,0c0-0.1,0-0.2,0-0.3c0-3,0-6,0-9c0-1.3,0.9-2.4,2.1-2.6
		c1.6-0.3,3,0.9,3.1,2.5c0,1.1,0,2.3,0,3.4C19.8,37.6,19.8,39.4,19.8,41.2z M40.9,41.8c-6.3,0-12.7,0-19.1,0c0-1.3,0-2.6,0-3.9
		c6.4,0,12.7,0,19.1,0C40.9,39.1,40.9,40.4,40.9,41.8z M40.9,35.5c0,0.1,0,0.2,0,0.4c-6.4,0-12.8,0-19.1,0c0-0.4,0-0.7,0-1.1
		c0-0.5,0.3-0.7,0.8-0.8c0.2,0,0.4,0,0.5,0c5.4,0,10.8,0,16.2,0C40.7,33.9,40.9,34.1,40.9,35.5z M41.8,29.7
		c-0.4,0.7-0.7,1.5-1.1,2.3c-6.3,0-12.6,0-19,0c0-0.1-0.1-0.2-0.1-0.3c-0.3-1.6-1.2-2.8-2.7-3.5c-0.8-0.4-0.8-0.4-0.8-1.3
		c0-0.1,0-0.2,0-0.2c0.1-1.3,1-2.3,2.4-2.4c0.2,0,0.5,0,0.7,0c1.7,0,10.8,0,14.4,0c2,0,3.9,0,5.9,0c1.3,0,2.3,0.6,2.7,1.6
		c0.2,0.5,0.1,1.1,0.2,1.6c0,0.3-0.1,0.5-0.4,0.6C43.1,28.4,42.3,28.9,41.8,29.7z M48,40.9c0,0.3,0,0.5,0,0.9c-1.8,0-3.4,0-5.2,0
		c0-0.1,0-0.2,0-0.3c0-3,0-5.9,0-8.9c0-1.4,0.9-2.5,2.1-2.7c1.7-0.3,3,0.9,3,2.7C48,35.3,48,38.1,48,40.9z"/>
	<path class="st0" d="M37,16.2c-3.2,0-6.5,0-9.7,0c-2,0-3.2-1.2-3.2-3.3c0-3.2,0-6.5,0-9.7c0-2,1.2-3.2,3.2-3.2c6.5,0,13,0,19.5,0
		c2,0,3.2,1.2,3.2,3.3c0,3.2,0,6.4,0,9.7c0,2.1-1.2,3.3-3.3,3.3C43.5,16.2,40.2,16.2,37,16.2z M43.5,6.1c-1,1-1.8,1.8-2.7,2.7
		c-0.1,0.1-0.3,0.3-0.5,0.4c-0.4,0.2-0.9,0.2-1.2-0.1S38.7,8.3,39,7.9c0.1-0.2,0.2-0.3,0.3-0.4c1.1-1.1,2.1-2.1,3.2-3.2
		c0.7-0.7,1.2-0.7,1.8,0c1.1,1.1,2.2,2.2,3.3,3.3C47.7,7.7,47.9,7.8,48,8c0-1.6,0-3.2,0-4.7c0-1-0.3-1.3-1.2-1.3c-6.5,0-13,0-19.5,0
		c-1,0-1.3,0.3-1.3,1.3c0,3.2,0,6.5,0,9.7c0,1,0.3,1.3,1.3,1.3c3.4,0,6.7,0,10.1,0c0.1,0,0.3,0,0.4,0c-2.1-2.1-4.3-4.3-6.4-6.4
		c-0.6,0.6-1.2,1.3-1.9,1.9c-0.2,0.2-0.4,0.3-0.6,0.4c-0.4,0.1-0.8-0.1-1-0.5s-0.2-0.8,0.2-1.2c0.8-0.8,1.6-1.6,2.4-2.5
		c0.8-0.8,1.2-0.8,2,0c2.7,2.7,5.3,5.3,8,8c0.1,0.1,0.4,0.3,0.6,0.3c2,0,4,0,6,0c0.7,0,1.1-0.4,1.1-1.1c0-0.7,0-1.5,0-2.2
		c0-0.1,0-0.3-0.1-0.3C46.5,9.1,45,7.6,43.5,6.1z"/>
	<path class="st0" d="M4.4,20.8c0.5,0,1,0.5,0.9,1c0,0.5-0.5,1-1,0.9c-0.5,0-1-0.5-0.9-1C3.4,21.2,3.9,20.8,4.4,20.8z"/>
</g>
</svg>
