<?xml version="1.0" encoding="utf-8"?>
<!-- Generator: Adobe Illustrator 23.0.0, SVG Export Plug-In . SVG Version: 6.00 Build 0)  -->
<svg version="1.1"
	 id="svg3409" inkscape:version="0.91 r13725" sodipodi:docname="MasterCard 2016.svg" xmlns:cc="http://creativecommons.org/ns#" xmlns:dc="http://purl.org/dc/elements/1.1/" xmlns:inkscape="http://www.inkscape.org/namespaces/inkscape" xmlns:rdf="http://www.w3.org/1999/02/22-rdf-syntax-ns#" xmlns:sodipodi="http://sodipodi.sourceforge.net/DTD/sodipodi-0.dtd" xmlns:svg="http://www.w3.org/2000/svg"
	 xmlns="http://www.w3.org/2000/svg" xmlns:xlink="http://www.w3.org/1999/xlink" x="0px" y="0px" viewBox="0 0 999.2 776"
	 style="enable-background:new 0 0 999.2 776;" xml:space="preserve">
<style type="text/css">
	.st0{fill:#FF5A00;}
	.st1{fill:#EB001B;}
	.st2{fill:#F79E1B;}
</style>
<g>
	<rect id="rect19" x="364" y="145.1" class="st0" width="270.4" height="485.8"/>
	<path id="XMLID_330_" inkscape:connector-curvature="0" class="st1" d="M382,388c0-98.7,46.4-186.3,117.6-242.9
		C447.2,103.9,381.1,79,309,79C138.2,79,0,217.2,0,388s138.2,309,309,309c72.1,0,138.2-24.9,190.6-66.1
		C428.3,575.1,382,486.7,382,388z"/>
	<path id="path22" inkscape:connector-curvature="0" class="st2" d="M999.2,388c0,170.8-138.2,309-309,309
		c-72.1,0-138.2-24.9-190.6-66.1c72.1-56.7,117.6-144.2,117.6-242.9s-46.4-186.3-117.6-242.9C551.9,103.9,618,79,690.1,79
		C861,79,999.2,218.1,999.2,388z"/>
</g>
</svg>
