<?xml version="1.0" encoding="utf-8"?>
<!-- Generator: Adobe Illustrator 23.0.0, SVG Export Plug-In . SVG Version: 6.00 Build 0)  -->
<svg version="1.1" id="Layer_1" xmlns="http://www.w3.org/2000/svg" xmlns:xlink="http://www.w3.org/1999/xlink" x="0px" y="0px"
	 viewBox="0 0 50 50" style="enable-background:new 0 0 50 50;" xml:space="preserve">
<style type="text/css">
	.st0{fill:#20C4F4;}
</style>
<g>
	<path class="st0" d="M25.9,43.2c0,0.5,0,1.1,0,1.6c0,0.1,0.3,0.3,0.4,0.4c1,0.6,1.5,1.8,1.2,2.9C27.2,49.2,26.2,50,25,50
		s-2.2-0.8-2.5-1.9c-0.3-1.1,0.2-2.4,1.2-2.9c0.3-0.2,0.4-0.4,0.4-0.8c0-0.4,0-0.8,0-1.2c-0.2,0-0.3,0-0.5,0c-1.2,0-2.3,0-3.5,0
		c-0.9,0-1.5,0.9-1.1,1.7c0.1,0.1,0.2,0.2,0.3,0.2c1.1,0.6,1.6,1.8,1.3,3c-0.3,1.2-1.3,1.9-2.5,1.9s-2.2-0.8-2.5-2
		c-0.3-1.1,0.2-2.3,1.3-2.9c0.3-0.2,0.4-0.4,0.4-0.7c0-0.4,0-0.8,0.1-1.1c0.3-1.1,1.3-1.9,2.4-2c1.2,0,2.5,0,3.7,0
		c0.2,0,0.4,0,0.6,0c0-1.7,0-3.4,0-5.1c-0.2,0-0.4,0-0.6,0c-1.7,0-3.4,0-5.1,0c-0.9,0-1.2-0.3-1.2-1.2c0-0.7,0-1.5,0-2.3
		c-0.2,0-0.4,0-0.6,0c-2.3,0-4.6,0-6.8,0c-0.9,0-1.2-0.3-1.2-1.2c0-0.7,0-1.5,0-2.3c-0.3,0-0.6,0-0.8,0c-0.6,0-0.9-0.3-0.9-0.9
		c0-2.1,0-4.1,0-6.2c0-0.9,0.7-1.5,1.6-1.6c0.6,0,1.3,0,1.9,0c0.9,0,1.6,0.7,1.7,1.7c0,2,0,4.1,0,6.1c0,0.6-0.3,0.9-0.9,0.9
		c-0.2,0-0.5,0-0.8,0c0,0.6,0,1.1,0,1.6c1.1,0,2.2,0,3.4,0c0-0.3,0-0.5,0-0.8c0-1.5,1.1-2.6,2.6-2.6c2.3,0,4.7,0,7,0
		c0.2,0,0.4,0,0.6,0c0-0.6,0-1.1,0-1.6c-0.2,0-0.4,0-0.6,0c-2.3,0-4.6,0-6.8,0c-1.8,0-2.9-1-2.9-2.9c0-5,0-10.1,0-15.1
		c0-4.5,3.4-7.9,7.9-7.9c2.2,0,4.4,0,6.7,0c4.5,0,7.9,3.4,7.9,7.9c0,5.1,0,10.2,0,15.2c0,1.7-1.1,2.8-2.8,2.8c-2.3,0-4.6,0-6.9,0
		c-0.2,0-0.4,0-0.6,0c0,0.6,0,1.1,0,1.6c0.2,0,0.4,0,0.6,0c2.3,0,4.5,0,6.8,0c1.9,0,2.9,1,2.9,2.9c0,0.2,0,0.3,0,0.5
		c0.6,0,1.1,0,1.7,0c0.5,0,1.1,0,1.6,0c0-0.6,0-1.1,0-1.7c-0.3,0-0.5,0-0.8,0c-0.5,0-0.9-0.3-0.9-0.9c0-2.1,0-4.1,0-6.2
		c0-0.8,0.7-1.5,1.6-1.6c0.7,0,1.4,0,2,0c0.9,0,1.6,0.7,1.6,1.6c0,2,0,4.1,0,6.1c0,0.6-0.3,0.9-0.9,0.9c-0.2,0-0.5,0-0.8,0
		c0,0.8,0,1.6,0,2.3c0,0.8-0.3,1.1-1.1,1.1c-2.3,0-4.6,0-6.8,0c-0.2,0-0.4,0-0.6,0c0,0.8,0,1.5,0,2.2c0,1-0.2,1.2-1.2,1.3
		c-1.7,0-3.3,0-5,0c-0.2,0-0.4,0-0.6,0c0,1.7,0,3.4,0,5.1c0.2,0,0.4,0,0.6,0c1.2,0,2.4,0,3.6,0c1.6,0,2.7,1.1,2.7,2.7
		c0,0.6,0.1,0.9,0.7,1.3c1,0.6,1.3,1.9,0.9,3c-0.5,1.4-1.5,2-2.7,2c-1.1,0-2.1-0.8-2.4-1.9c-0.3-1.1,0.1-2.3,1.1-2.9
		c0.5-0.3,0.7-0.8,0.5-1.4c-0.2-0.6-0.6-0.6-1.1-0.6c-1.2,0-2.5,0-3.7,0C26.1,43.1,26,43.1,25.9,43.2z M25,24.1c2.8,0,5.5,0,8.3,0
		c0.9,0,1.2-0.3,1.2-1.2c0-5,0-9.9,0-14.9c0-3.7-2.6-6.2-6.2-6.2c-2.1,0-4.3,0-6.4,0c-3.7,0-6.2,2.6-6.2,6.2c0,5,0,9.9,0,14.9
		c0,0.9,0.3,1.2,1.2,1.2C19.5,24.1,22.2,24.1,25,24.1z M15.5,31c6.4,0,12.6,0,18.8,0c0.2-1.2-0.1-1.6-1.3-1.6c-1.3,0-2.6,0-3.9,0
		c-4.2,0-8.4,0-12.5,0c-0.5,0-0.9,0.1-1.1,0.6C15.5,30.2,15.6,30.6,15.5,31z M31,32.8c-4,0-8,0-12,0c0,0.3,0,0.5,0,0.8s0,0.5,0,0.8
		c4,0,8,0,12,0C31,33.9,31,33.4,31,32.8z M8.7,22.5c0,1.7,0,3.4,0,5c0.6,0,1.1,0,1.6,0c0-1.7,0-3.3,0-5C9.8,22.5,9.3,22.5,8.7,22.5z
		 M39.7,22.5c0,1.7,0,3.4,0,5.1c0.5,0,1.1,0,1.6,0c0-1.7,0-3.4,0-5.1C40.7,22.5,40.2,22.5,39.7,22.5z M18.1,46.6
		c-0.4,0-0.8,0.4-0.8,0.8c0,0.4,0.4,0.8,0.8,0.8s0.8-0.4,0.8-0.8S18.6,46.6,18.1,46.6z M25,48.2c0.4,0,0.8-0.4,0.8-0.8
		c0-0.4-0.4-0.8-0.8-0.8s-0.8,0.4-0.8,0.8S24.5,48.2,25,48.2z M31.9,46.6c-0.4,0-0.8,0.4-0.8,0.8c0,0.4,0.4,0.8,0.8,0.8
		s0.8-0.4,0.8-0.8S32.3,46.6,31.9,46.6z"/>
</g>
</svg>
