<?xml version="1.0" encoding="utf-8"?>
<!-- Generator: Adobe Illustrator 23.0.0, SVG Export Plug-In . SVG Version: 6.00 Build 0)  -->
<svg version="1.1" id="Layer_1" xmlns="http://www.w3.org/2000/svg" xmlns:xlink="http://www.w3.org/1999/xlink" x="0px" y="0px"
	 viewBox="0 0 16 16" style="enable-background:new 0 0 16 16;" xml:space="preserve">
<style type="text/css">
	.st0{fill-rule:evenodd;clip-rule:evenodd;fill:#20c4f4;}
</style>
<path class="st0" d="M11,1H5C4.4,1,4,1.4,4,2v6c0,0.3-0.2,0.5-0.5,0.5S3,8.3,3,8V2c0-1.1,0.9-2,2-2h6c1.1,0,2,0.9,2,2v6
	c0,0.3-0.2,0.5-0.5,0.5S12,8.3,12,8V2C12,1.4,11.6,1,11,1z M12,14c0,0.6-0.4,1-1,1H5c-0.6,0-1-0.4-1-1v-2c0-0.3-0.2-0.5-0.5-0.5
	S3,11.7,3,12v2c0,1.1,0.9,2,2,2h6c1.1,0,2-0.9,2-2v-2c0-0.3-0.2-0.5-0.5-0.5S12,11.7,12,12V14z M1.7,8C2,7.8,2.1,7.5,2,7.3
	C1.8,7,1.5,6.9,1.3,7l0,0C0.9,7.2,0.6,7.4,0.4,7.6C0.2,7.8,0,8.1,0,8.5C0,9,0.4,9.4,0.8,9.7c0.4,0.3,1,0.5,1.7,0.7
	C4,10.8,5.9,11,8,11c0.1,0,0.2,0,0.3,0l-1.1,1.1c-0.2,0.2-0.2,0.5,0,0.7s0.5,0.2,0.7,0l2-2c0.2-0.2,0.2-0.5,0-0.7c0,0,0,0,0,0l-2-2
	C7.7,8,7.3,8,7.1,8.1C7,8.3,7,8.7,7.1,8.9L8.3,10L8,10c-2,0-3.9-0.2-5.2-0.6C2.2,9.3,1.7,9.1,1.4,8.9C1,8.6,1,8.5,1,8.5
	c0,0,0-0.1,0.1-0.2C1.2,8.2,1.4,8.1,1.7,8L1.7,8z M14.7,7c-0.3-0.1-0.5,0-0.7,0.2s0,0.5,0.2,0.7c0.3,0.1,0.5,0.3,0.6,0.4
	C15,8.4,15,8.5,15,8.5c0,0,0,0.1-0.1,0.2c-0.1,0.1-0.4,0.3-0.7,0.4c-0.6,0.3-1.6,0.5-2.8,0.7c-0.3,0-0.5,0.3-0.4,0.6
	c0,0.3,0.3,0.5,0.6,0.4c1.2-0.2,2.3-0.4,3-0.8c0.4-0.2,0.7-0.4,1-0.6C15.8,9.2,16,8.9,16,8.5c0-0.4-0.2-0.7-0.4-0.9S15.1,7.2,14.7,7
	z M7.5,2C7.2,2,7,2.2,7,2.5S7.2,3,7.5,3h1C8.8,3,9,2.8,9,2.5S8.8,2,8.5,2H7.5z"/>
</svg>
