<?xml version="1.0" encoding="utf-8"?>
<!-- Generator: Adobe Illustrator 23.0.0, SVG Export Plug-In . SVG Version: 6.00 Build 0)  -->
<svg version="1.1" id="Layer_1" xmlns="http://www.w3.org/2000/svg" xmlns:xlink="http://www.w3.org/1999/xlink" x="0px" y="0px"
	 viewBox="0 0 16 16" style="enable-background:new 0 0 16 16;" xml:space="preserve">
<style type="text/css">
	.st0{fill:#20c4f4;}
</style>
<path class="st0" d="M6,0c0.3,0,0.5,0.2,0.5,0.5V3h3V0.5C9.5,0.2,9.7,0,10,0s0.5,0.2,0.5,0.5V3h1C11.8,3,12,3.2,12,3.5v3
	c0,1.9-1.6,3.5-3.5,3.5c0,0.4,0,0.8,0,1.2c0,0.5-0.1,1-0.3,1.4c-0.2,0.4-0.5,0.8-1,1c-0.4,0.2-1,0.3-1.7,0.3c-1,0-1.6,0.3-2,0.7
	C3.2,15.1,3,15.5,3,16H2c0-0.6,0.2-1.4,0.8-2c0.6-0.6,1.5-1,2.7-1c0.6,0,1-0.1,1.2-0.2c0.2-0.1,0.4-0.3,0.5-0.6
	c0.1-0.3,0.2-0.6,0.2-1.1c0-0.3,0-0.7,0-1.1C5.6,10,4,8.4,4,6.5v-3C4,3.2,4.2,3,4.5,3h1V0.5C5.5,0.2,5.7,0,6,0z M5,4v2.5
	C5,7.9,6.1,9,7.5,9h1C9.9,9,11,7.9,11,6.5V4H5z"/>
</svg>
