<?xml version="1.0" encoding="utf-8"?>
<!-- Generator: Adobe Illustrator 23.0.0, SVG Export Plug-In . SVG Version: 6.00 Build 0)  -->
<svg version="1.1" id="Layer_1" xmlns="http://www.w3.org/2000/svg" xmlns:xlink="http://www.w3.org/1999/xlink" x="0px" y="0px"
	 viewBox="0 0 50 50" style="enable-background:new 0 0 50 50;" xml:space="preserve">
<style type="text/css">
	.st0{fill:#20C4F4;}
</style>
<g>
	<path class="st0" d="M8.9,33.9c0-1.6,0-3.2,0-4.7c0-0.1-0.2-0.3-0.4-0.4c-1.2-0.5-1.9-1.4-2-2.6c-0.1-1.3,0.4-2.3,1.4-3
		c0.6-0.4,1.3-0.6,2-0.6c6.6,0,13.2,0,19.8,0c2.4,0,4.8,0,7.2,0c0.2,0,0.3,0,0.6,0c-0.2-0.2-0.3-0.4-0.5-0.5
		c-6.5-6.5-13-13-19.5-19.5c-0.8-0.8-0.7-1.2,0.1-1.8C18.6,0,19.8-0.1,21,0c2.3,0.2,4.3,1.1,6.2,2.3c1.4,0.9,2.8,1.9,4.2,2.9
		c0.3-0.3,0.7-0.7,1.1-1.2c0.1-0.1,0.1-0.3,0-0.4c-0.3-1.2,0.1-2.3,1.1-2.8c1-0.6,2.1-0.4,3,0.5c1.1,1.1,2.2,2.2,3.2,3.2
		c0.9,0.9,1,2.1,0.4,3c-0.6,1-1.7,1.4-2.8,1c-0.1,0-0.3,0-0.4,0.1c-0.4,0.3-0.8,0.7-1.2,1.1c0.9,1.2,1.7,2.3,2.5,3.5
		c1.2,1.9,2.2,3.9,2.6,6.1c0.2,1.1,0.2,2.2-0.1,3.3c0.2,0.1,0.3,0.1,0.5,0.2c1.3,0.4,2.2,1.6,2.2,2.9c0.1,1.3-0.7,2.6-1.9,3.1
		c-0.4,0.2-0.5,0.4-0.5,0.8c0,1.4,0,2.8,0,4.2c0,0,0,0.1,0.1,0.1c0.5,0,1.1,0.1,1.6,0c0.2,0,0.5-0.3,0.7-0.5
		c0.1-0.2,0.1-0.4-0.2-0.5c-1.1-0.6-1.6-1.7-1.3-2.8c0.3-1.1,1.2-1.8,2.5-1.8c1,0,1.9,0,2.9,0c1.2,0,2.1,0.7,2.4,1.8
		c0.3,1.1-0.2,2.2-1.3,2.7c-0.3,0.1-0.3,0.3-0.3,0.6c0,1.1-0.1,2.1-0.7,3c-0.9,1.5-2.3,2.3-4,2.3c-0.8,0-1.6,0-2.5,0
		c0,0.2,0,0.4,0,0.6c0,1.6,0,3.3,0,4.9c0,3.4-2.4,5.8-5.9,5.8c-6.9,0-13.7,0-20.6,0c-3.4,0-5.8-2.5-5.8-5.9c0-1.6,0-3.3,0-4.9
		c0-0.2,0-0.3,0-0.5c-0.8,0-1.5,0-2.2,0c-3,0-5.1-2.1-5.1-5.1c0-0.5-0.1-0.8-0.5-1C0,32.1-0.4,31-0.1,30s1.1-1.8,2.2-1.8
		c1.2,0,2.4,0,3.5,0S7.5,29,7.8,30c0.3,1-0.2,2-1.1,2.6c-0.2,0.1-0.6,0.1-0.4,0.5c0.1,0.4,0.4,0.6,0.8,0.6
		C7.8,33.9,8.3,33.9,8.9,33.9z M10.5,29c0,0.2,0,0.4,0,0.5c0,4.8,0,9.7,0,14.5c0,2.6,1.7,4.3,4.3,4.3c6.8,0,13.6,0,20.5,0
		c2.6,0,4.3-1.7,4.3-4.3c0-4.8,0-9.7,0-14.5c0-0.2,0-0.4,0-0.5C29.8,29,20.2,29,10.5,29z M24.9,27.4c4.8,0,9.6,0,14.4,0
		c0.4,0,0.7,0,1.1,0c0.8,0,1.5-0.7,1.5-1.5c0.1-0.8-0.5-1.5-1.3-1.7c-0.2,0-0.4,0-0.7,0c-10,0-20,0-30,0c-0.1,0-0.3,0-0.4,0
		c-0.7,0.1-1.2,0.4-1.4,1c-0.4,1.1,0.4,2.2,1.7,2.2C14.9,27.4,19.9,27.4,24.9,27.4z M19.1,1.8C25.9,8.5,32.6,15.2,39.4,22
		c0-0.4,0.1-0.9,0.1-1.4c0-1.4-0.5-2.8-1.1-4C35.7,11.3,31.8,7.2,26.8,4c-1.7-1.1-3.5-2-5.5-2.3C20.6,1.5,19.8,1.5,19.1,1.8z
		 M8.8,35.5c-0.6,0-1.1,0-1.7,0c-0.9,0-1.6-0.4-2-1.2c-0.2-0.4-0.3-0.8-0.5-1.2c-0.5,0-1,0-1.5,0c0,0.3,0,0.5,0,0.7
		c0,1.6,1.1,3,2.7,3.2c1,0.1,2,0,3,0C8.8,36.5,8.8,36,8.8,35.5z M41.2,37.1c0.8,0,1.5,0,2.2,0c2.3,0,3.7-1.7,3.4-4c-0.5,0-1,0-1.5,0
		c-0.3,1.6-1.1,2.4-2.8,2.4c-0.4,0-0.8,0-1.3,0C41.2,36,41.2,36.5,41.2,37.1z M34.8,2c-0.2,0.2-0.6,0.4-0.6,0.6
		c-0.1,0.3,0,0.7,0.2,0.9c1.1,1.1,2.2,2.3,3.3,3.4c0.4,0.4,0.8,0.4,1.2,0.1c0.3-0.3,0.3-0.8-0.1-1.2c-1.1-1.1-2.2-2.2-3.3-3.3
		C35.3,2.2,35.1,2.1,34.8,2z M4,29.8c-0.5,0-1,0-1.6,0c-0.5,0-0.9,0.3-0.9,0.8s0.3,0.8,0.9,0.8c1,0,2,0,3.1,0c0.5,0,0.9-0.3,0.9-0.8
		s-0.3-0.8-0.9-0.8C5.1,29.8,4.6,29.8,4,29.8z M46,31.4c0.5,0,1,0,1.5,0c0.6,0,0.9-0.3,0.9-0.8s-0.3-0.8-0.9-0.8c-1,0-2,0-3,0
		c-0.6,0-0.9,0.3-0.9,0.8s0.4,0.8,0.9,0.8C45,31.5,45.5,31.4,46,31.4z M34.8,8.5c0.4-0.4,0.8-0.7,1.1-1c-0.8-0.8-1.5-1.5-2.2-2.2
		C33.3,5.6,33,6,32.6,6.4C33.3,7,34.1,7.8,34.8,8.5z"/>
	<path class="st0" d="M13.9,8.3c0.4,0.4,0.8,0.8,1.2,1.2c-0.5,0.4-0.9,0.9-1.4,1.3c-1.1,1.1-1.1,2.3,0,3.3c0.7,0.7,1.3,1.4,1.5,2.4
		c0.2,1.1,0,2.2-0.7,3c-0.6,0.7-1.3,1.2-1.9,1.8c-0.3-0.3-0.6-0.7-1-1.1c0.5-0.4,0.9-0.9,1.4-1.4c1-1,1-2.2,0-3.2
		c-0.7-0.7-1.4-1.5-1.6-2.5c-0.2-1,0-1.9,0.6-2.7C12.5,9.7,13.2,9,13.9,8.3z"/>
	<path class="st0" d="M21.2,8.3c0.4,0.4,0.8,0.8,1.2,1.2c-0.5,0.4-0.9,0.9-1.4,1.3c-1.1,1.1-1.1,2.3,0,3.4c0.7,0.7,1.3,1.4,1.5,2.4
		c0.2,1.1,0,2.1-0.7,2.9c-0.6,0.7-1.3,1.2-2,1.8c-0.3-0.3-0.6-0.7-1-1.1c0.3-0.3,0.6-0.6,1-0.9c1.6-1.3,1.5-2.8,0-4.1
		c-0.6-0.5-1-1.3-1.2-2.1c-0.2-1-0.1-1.9,0.5-2.7C19.8,9.7,20.5,9,21.2,8.3z"/>
	<path class="st0" d="M37.1,33.1c0.6,0,1.1,0,1.6,0c0,0.1,0,0.2,0,0.3c0,3.7,0,7.3,0,11c0,1.8-1.4,3.2-3.2,3.2c0-0.5,0-1,0-1.5
		c1.2-0.3,1.6-0.8,1.6-2.1c0-3.4,0-6.9,0-10.3C37.1,33.5,37.1,33.3,37.1,33.1z"/>
</g>
</svg>
