<?xml version="1.0" encoding="utf-8"?>
<!-- Generator: Adobe Illustrator 23.0.0, SVG Export Plug-In . SVG Version: 6.00 Build 0)  -->
<svg version="1.1" id="Layer_1" xmlns="http://www.w3.org/2000/svg" xmlns:xlink="http://www.w3.org/1999/xlink" x="0px" y="0px"
	 viewBox="0 0 50 50" style="enable-background:new 0 0 50 50;" xml:space="preserve">
<style type="text/css">
	.st0{fill:#20C4F4;}
</style>
<g>
	<path class="st0" d="M0,18.4c0.3-0.4,0.6-0.8,1-1.1C8.6,11.7,16.1,6.2,23.6,0.6c1.2-0.8,1.6-0.8,2.7,0C34,6.2,41.6,11.8,49.2,17.3
		c0.4,0.3,0.8,0.7,0.8,1.3c0.1,0.6-0.2,1.1-0.7,1.5c-0.5,0.3-1.1,0.3-1.6,0c-0.2-0.1-0.5-0.3-0.8-0.5c0,0.2,0,0.4,0,0.6
		c0,8.3,0,16.6,0,24.9c0,2.7-1.2,4.2-3.8,4.9H43c-12,0-24,0-36,0H6.9c-2.6-0.7-3.8-2.2-3.8-4.9c0-8.3,0-16.6,0-24.8
		c0-0.2,0-0.4,0-0.6c-0.3,0.2-0.4,0.3-0.6,0.4c-0.6,0.4-1.3,0.5-1.8,0.1C0.4,20,0.2,19.6,0,19.3C0,18.9,0,18.6,0,18.4z M25,3.5
		c-0.1,0.1-0.2,0.1-0.2,0.1c-6.1,4.5-12.2,9-18.3,13.4c-0.3,0.2-0.3,0.4-0.3,0.7c0,9.2,0,18.3,0,27.5c0,1.2,0.5,1.7,1.7,1.7
		c11.4,0,22.8,0,34.2,0c1.2,0,1.7-0.5,1.7-1.7c0-9.2,0-18.3,0-27.5c0-0.3-0.1-0.6-0.4-0.8c-3.3-2.4-6.7-4.9-10-7.3
		C30.6,7.6,27.8,5.6,25,3.5z"/>
	<path class="st0" d="M25.4,20.3c3.2,0,6.3,1.3,8.9,3.8c0.6,0.5,0.7,1.2,0.4,1.9c-0.3,0.6-0.9,1-1.6,0.8c-0.4-0.1-0.8-0.3-1-0.6
		c-2.1-1.9-4.5-2.9-7.3-2.8c-2.6,0.1-4.8,1-6.8,2.8c-0.3,0.3-0.7,0.5-1.1,0.6c-0.7,0.2-1.3-0.2-1.6-0.8c-0.3-0.6-0.2-1.3,0.3-1.8
		c1.2-1.2,2.7-2.2,4.3-2.9C21.5,20.7,23.2,20.3,25.4,20.3z"/>
	<path class="st0" d="M25.4,25.8c1.7,0,3.5,0.7,5,2.1c0.7,0.7,0.8,1.7,0.2,2.3c-0.6,0.7-1.5,0.7-2.3,0c-2-1.8-4.5-1.8-6.5,0
		c-0.8,0.7-1.7,0.7-2.3,0c-0.6-0.7-0.5-1.6,0.2-2.3C21,26.6,23,25.8,25.4,25.8z"/>
	<path class="st0" d="M27.3,35.2c0,1.3-1.1,2.4-2.4,2.3c-1.3,0-2.3-1.1-2.3-2.3c0-1.3,1.1-2.4,2.4-2.3
		C26.3,32.8,27.3,33.9,27.3,35.2z"/>
</g>
</svg>
