<?xml version="1.0" encoding="utf-8"?>
<!-- Generator: Adobe Illustrator 23.0.0, SVG Export Plug-In . SVG Version: 6.00 Build 0)  -->
<svg version="1.1" id="Layer_1" xmlns="http://www.w3.org/2000/svg" xmlns:xlink="http://www.w3.org/1999/xlink" x="0px" y="0px"
	 viewBox="0 0 50 50" style="enable-background:new 0 0 50 50;" xml:space="preserve">
<style type="text/css">
	.st0{fill:#20C4F4;}
</style>
<g>
	<path class="st0" d="M25,8.6c1.1-1.3,2.5-1.8,4.1-1.8c4.3,0,8.6,0,12.9,0c2.8,0,4.6,1.8,4.6,4.6c0,1.8,0,3.7,0,5.5
		c0,0.4,0.1,0.5,0.4,0.7c2,0.9,3.2,2.9,3,5.1c-0.3,3.8-0.7,7.5-1,11.3c-0.2,1.6-1,2.8-2.4,3.4c-0.4,0.2-0.4,0.4-0.4,0.7
		c0.1,1.2,0.2,2.4,0.4,3.5c0.1,1-0.2,1.4-1.2,1.4s-1.9,0-2.9,0c-0.6,0-0.9-0.2-1-0.8c-0.3-1.3-0.6-2.6-0.8-3.8
		c-0.1-0.4-0.3-0.5-0.6-0.5c-1.3,0-2.5,0-3.8,0c-8.7,0-17.3,0-26,0c-0.5,0-0.7,0.2-0.8,0.7c-0.2,1.2-0.5,2.5-0.8,3.7
		c-0.1,0.6-0.4,0.8-1,0.8c-1,0-2,0-3.1,0c-0.8,0-1.1-0.4-1-1.2c0.1-1.2,0.3-2.5,0.4-3.7c0-0.4,0-0.6-0.4-0.7C2,36.8,1.2,35.6,1.1,34
		c-0.4-3.8-0.7-7.5-1-11.3c-0.2-2.3,1-4.2,3.1-5.1c0.3-0.1,0.4-0.3,0.4-0.6c0-1.9,0-3.8,0-5.7c0-2.6,1.9-4.5,4.5-4.5
		c4.4,0,8.8,0,13.3,0C22.7,6.9,24,7.4,25,8.6z M25,36.2c6.5,0,13,0,19.5,0c1.5,0,2.6-0.9,2.7-2.4c0.2-2.2,0.4-4.4,0.6-6.6
		c0.1-1.4,0.2-2.9,0.4-4.3c0.1-1.2-0.1-2.3-1.1-3.1c-1-0.9-2.2-1.1-3.4-0.6s-1.9,1.5-2,2.8c0,2,0,4,0,6c0,1-0.3,1.3-1.2,1.3
		c-10.4,0-20.7,0-31.1,0c-1,0-1.2-0.3-1.2-1.3c0-2,0-4,0-6c0-1.6-1.3-3-2.9-3.1s-3.1,0.9-3.4,2.5c-0.1,0.6,0,1.3,0,2
		c0.3,3.4,0.6,6.7,0.9,10.1c0.2,1.8,1.1,2.6,3,2.6C12.1,36.2,18.6,36.2,25,36.2z M24.1,23.3c0-4.2,0-8.2,0-12.2
		c0-1.4-1.2-2.5-2.7-2.5c-4.5,0-9.1,0-13.6,0c-1.6,0-2.7,1.1-2.7,2.7c0,1.3,0,2.5,0,3.8c0,0.7,0,1.4,0,2.1c3.4,0.6,4.9,2.6,4.8,6.1
		c1.2-0.9,2.5-0.9,3.8-0.9c2.2,0,4.4,0,6.6,0C21.7,22.4,23,22.4,24.1,23.3z M44.8,17.2c0-1.9,0-3.9,0-5.8c0-1.6-1.1-2.7-2.8-2.7
		c-4.5,0-9,0-13.5,0c-1.7,0-2.7,1.1-2.8,2.8c0,3.8,0,7.6,0,11.4c0,0.1,0,0.3,0,0.5c1-0.7,2.1-0.9,3.3-0.9c2.7,0,5.4,0,8.1,0
		c0.9,0,1.7,0.2,2.5,0.7c0.1,0.1,0.2,0.1,0.3,0.2C39.9,19.8,41.4,17.8,44.8,17.2z M10,27.6c4.7,0,9.4,0,14.1,0
		c0.3-2.2-1.1-3.5-3.1-3.4c-2.7,0.1-5.4,0-8.1,0C10.8,24.1,9.7,25.4,10,27.6z M25.9,27.6c4.7,0,9.4,0,14.1,0c0-0.4,0-0.8,0-1.2
		c-0.2-1.3-1.2-2.2-2.5-2.3c-3,0-6,0-9,0c-1.3,0-2.3,0.9-2.5,2.1C25.8,26.7,25.9,27.1,25.9,27.6z M44.4,38c-0.7,0-1.4,0-2.1,0
		c0.2,1.2,0.5,2.3,0.7,3.4c0.6,0,1.2,0,1.8,0C44.6,40.2,44.5,39.1,44.4,38z M5.3,41.3c0.6,0,1.2,0,1.8,0c0.2-1.1,0.5-2.2,0.7-3.4
		c-0.7,0-1.4,0-2.1,0C5.5,39.1,5.4,40.2,5.3,41.3z"/>
</g>
</svg>
