<svg width="500" height="90" xmlns="http://www.w3.org/2000/svg"><path stroke="null" fill="#F96302" d="M93.167 33.94L64.16 54.73l9.94 32.656-27.078-19.878-28.296 20.284 10.446-33.164L.167 33.938h34.887L46.11.17l11.46 33.77h35.597zm101.418 0L165.58 54.73l9.938 32.656-27.078-19.878-28.296 20.284 10.446-33.164-29.005-20.69h34.888L147.527.17l11.46 33.77h35.598zm101.418 0l-29.005 20.79 9.94 32.656-27.08-19.878-28.296 20.284 10.446-33.164-29.005-20.69h34.888L248.946.17l11.46 33.77h35.598zm101.418 0l-29.004 20.79 9.94 32.656-27.08-19.878-28.296 20.284 10.446-33.164-29.005-20.69h34.89L350.362.17l11.46 33.77h35.598zm101.42 0l-29.006 20.79 9.94 32.656-27.08-19.878-28.296 20.284 10.447-33.164-29.006-20.69h34.887L451.78.17l11.462 33.77h35.597z"/></svg>