<?xml version="1.0" encoding="utf-8"?>
<!-- Generator: Adobe Illustrator 23.0.0, SVG Export Plug-In . SVG Version: 6.00 Build 0)  -->
<svg version="1.1" id="Layer_1" xmlns="http://www.w3.org/2000/svg" xmlns:xlink="http://www.w3.org/1999/xlink" x="0px" y="0px"
	 viewBox="0 0 50 50" style="enable-background:new 0 0 50 50;" xml:space="preserve">
<style type="text/css">
	.st0{fill:#20C4F4;}
</style>
<g>
	<path class="st0" d="M25.4,24.6c0.3,0,0.5,0,0.7,0c7.3,0,14.5,0,21.8,0c1,0,1.3,0.2,1.3,1.3c0,7.6,0,15.3,0,22.9
		c0,1-0.2,1.3-1.3,1.3c-15.5,0-31.1,0-46.6,0c-1,0-1.3-0.2-1.3-1.3C0,33.2,0,17.7,0,2.1C0,1,0.2,0.8,1.3,0.8c7.6,0,15.3,0,22.9,0
		c1,0,1.2,0.2,1.2,1.3c0,7.3,0,14.5,0,21.8C25.4,24.1,25.4,24.3,25.4,24.6z M35.6,48.3c0.3-3.1,1.5-5.9,3.7-8.1s5-3.4,8.1-3.7
		c0-3.4,0-6.8,0-10.2c-2.5,0-5.1,0-7.6,0c-0.3,3.9-1.7,7.2-4.5,9.9c-2.7,2.7-6.1,4.2-9.9,4.4c0,2.6,0,5.1,0,7.6
		C28.8,48.3,32.2,48.3,35.6,48.3z M23.7,48.3c0-2.6,0-5.1,0-7.5c-8.4-1.2-13.2-6-14.4-14.4c-2.5,0-5,0-7.5,0c0,3.4,0,6.8,0,10.2
		c3.2,0.3,5.9,1.5,8.1,3.7s3.4,5,3.7,8.1C16.9,48.3,20.3,48.3,23.7,48.3z M9.4,24.6c0.3-3.9,1.7-7.2,4.5-9.9
		c2.7-2.7,6.1-4.2,9.9-4.4c0-2.6,0-5.1,0-7.6c-3.4,0-6.8,0-10.1,0c-1.1,6.9-5,10.8-11.9,11.9c0,3.3,0,6.7,0,10.1
		C4.3,24.6,6.8,24.6,9.4,24.6z M15.3,24.5c2.8,0,5.6,0,8.4,0c0-2.8,0-5.6,0-8.4C19.5,16.4,15.5,20.4,15.3,24.5z M15.3,26.3
		c0.4,5.1,4.9,8.3,8.4,8.3c0-2.8,0-5.5,0-8.3C20.9,26.3,18.1,26.3,15.3,26.3z M33.8,26.3c-2.8,0-5.6,0-8.4,0c0,2.8,0,5.6,0,8.4
		C29.7,34.5,33.7,30.5,33.8,26.3z M13.5,24.5c0.9-5.9,4.3-9.2,10.2-10.2c0-0.8,0-1.6,0-2.5C17,12.3,11.3,18,11.1,24.5
		C11.9,24.5,12.7,24.5,13.5,24.5z M25.5,38.9c7-0.4,12.3-6.2,12.6-12.6c-0.8,0-1.6,0-2.5,0c-0.9,5.9-4.3,9.2-10.2,10.2
		C25.5,37.3,25.5,38.1,25.5,38.9z M11.1,26.3c0.4,7.3,6.6,12.4,12.6,12.6c0-0.8,0-1.6,0-2.5c-2.7-0.3-5-1.3-6.9-3.2
		c-1.9-1.9-2.9-4.2-3.2-6.9C12.7,26.3,11.9,26.3,11.1,26.3z M1.7,9.2C5.3,9,8.2,5.7,8.4,2.6c-2.2,0-4.4,0-6.7,0c0,2.1,0,4.2,0,6.2
		C1.7,8.9,1.7,9.1,1.7,9.2z M8.4,48.3c-0.3-4-4-6.6-6.7-6.6c0,2.2,0,4.4,0,6.6C3.9,48.3,6.1,48.3,8.4,48.3z M47.4,41.6
		c-3.7,0.3-6.6,3.8-6.6,6.6c2.2,0,4.4,0,6.6,0C47.4,46,47.4,43.9,47.4,41.6z M47.4,38.2c-5.8,0.4-9.9,5.3-10.1,10.1
		c0.5,0,1.1,0,1.6,0c0.8-4.8,3.7-7.6,8.5-8.5C47.4,39.3,47.4,38.8,47.4,38.2z M1.7,39.8c4.8,0.8,7.6,3.7,8.5,8.4c0.5,0,1.1,0,1.6,0
		c-0.4-5.8-5.3-9.9-10.1-10C1.7,38.7,1.7,39.3,1.7,39.8z M10.1,2.6C9.9,4.8,9,6.7,7.4,8.3C5.9,9.9,3.9,10.7,1.7,11
		c0,0.6,0,1.1,0,1.7c6.1-0.4,10-5.8,10-10.1C11.2,2.6,10.7,2.6,10.1,2.6z"/>
	<path class="st0" d="M41.4,4.9c1.5-1.5,2.9-2.9,4.4-4.4c0.7-0.7,1-0.7,1.7,0s1.3,1.3,2,2s0.7,1,0,1.7c-1.4,1.4-2.9,2.9-4.3,4.3
		C44.9,8.8,44.8,9,45,9.3c0.8,2.1,0.9,4.2,0.2,6.4c-0.1,0.3-0.1,0.6,0,0.9c0.4,1,0.7,2.1,0.5,3.2c-0.4,2.1-1.9,3.6-4.1,3.9
		c-1.3,0.1-2.6,0.1-3.9,0c-0.7-0.1-1.3-0.4-1.9-0.7c-0.8-0.4-1.6-0.9-2.4-1.4c-0.3-0.2-0.5-0.2-0.9-0.1c-1.4,0.5-2.8,0.9-4.2,1.3
		c-0.4,0.1-0.7,0.2-1-0.1C27,22.4,27,22,27.1,21.6c0.5-1.4,0.9-2.8,1.3-4.2c0.1-0.3,0.1-0.6-0.1-0.9c-0.7-1.3-1.4-2.7-1.6-4.2
		c-0.6-4.1,2.5-8.2,6.6-8.7C36.2,3.2,38.8,3.4,41.4,4.9z M29.3,20.7c0.2,0,0.3,0,0.4-0.1c2.5-0.8,5-1.5,7.5-2.4
		c0.6-0.2,1.2-0.5,1.6-0.9c1.6-1.4,2-4.1,0.6-5.7c-0.5,0.6-1,1.1-1.5,1.7c-0.5-0.5-0.8-0.8-1.3-1.3c0.6-0.5,1.1-1,1.7-1.5
		c-0.1-0.1-0.2-0.2-0.3-0.2c-2.4-1.4-5.4-0.2-6.3,2.4c-0.6,1.8-1.2,3.7-1.7,5.5C29.8,19,29.6,19.8,29.3,20.7z M39.9,6.1
		c-0.1,0-0.3-0.2-0.5-0.3c-1.5-0.6-3.2-0.8-4.8-0.7c-2.6,0-4.8,1.7-5.7,4.1c-0.6,1.7-0.4,4.1,0.6,5.3c0.3-0.8,0.5-1.6,0.8-2.4
		c1-2.9,3.9-4.5,6.9-3.9c0.9,0.2,1.7,0.6,2.5,0.9c0.2-0.2,0.4-0.4,0.7-0.6c-0.3-0.4-0.7-0.7-0.8-1.1C39.4,7,39.7,6.6,39.9,6.1z
		 M40.8,10.5c0,0,0.1,0.1,0.1,0.2c0,0.1,0.1,0.1,0.1,0.2c1.2,2.1,1.3,4.1,0.1,6.2c-0.9,1.6-2.4,2.5-4.2,3c-0.6,0.1-1.1,0.3-1.8,0.5
		c0.7,0.4,1.3,0.8,1.9,1.1c0.3,0.2,0.7,0.3,1.1,0.3c1,0,2,0,3,0c1.3,0,2.4-0.9,2.8-2.2c0.3-0.9,0-1.8-0.4-2.7
		c-0.3-0.7-0.4-1.3-0.1-2.1c0.6-1.6,0.6-3.2,0-4.8c-0.9,0.8-1.4-0.1-1.9-0.5C41.3,10,41.1,10.2,40.8,10.5z M46.7,2.1
		c-1.7,1.7-3.4,3.4-5.1,5.1C42,7.6,42.4,8,42.7,8.4c1.7-1.7,3.4-3.4,5.1-5.1C47.5,2.9,47.1,2.5,46.7,2.1z"/>
</g>
</svg>
