<svg width="40" height="37" viewBox="0 0 40 37" xmlns="http://www.w3.org/2000/svg"><title>Bulk Price 40x37</title><g fill="none" fill-rule="evenodd"><path fill="#000" d="M0 0h40v27.2H0z"/><path fill="#FFC20E" d="M0 27.2h40v9.6H0zM6.577 10.556l1.54-.135c.58-.05.881.181.922.65.054.614-.38.798-.893.843l-1.44.126-.13-1.484zM4.418 14.15l4.519-.395c1.406-.123 2.717-1.07 2.577-2.665-.102-1.172-.822-1.682-1.557-1.865.563-.376.915-.845.845-1.648-.071-.815-.62-1.959-2.718-1.775l-4.363.382.697 7.966zm1.924-6.284l1.294-.114c.502-.043.85.072.884.474.045.513-.266.687-.779.731l-1.294.114-.105-1.205zm12.62-3.016l-2.456.215.38 4.34c.071.815.16 1.83-1 1.932-1.194.104-1.283-.911-1.354-1.726l-.38-4.34-2.454.215.427 4.887c.193 2.209 1.491 3.163 3.924 2.95 2.432-.212 3.533-1.377 3.34-3.586l-.428-4.887zm1.677 7.88l5.98-.522-.178-2.042-3.526.308-.518-5.924-2.455.214.697 7.967zm6.839-.597l2.454-.215-.206-2.354.616-.807 2.235 2.93 3.057-.268-3.783-4.56 2.617-3.365-3.023.264-1.947 2.936-.023.002-.24-2.745-2.454.215.697 7.967z"/><path d="M5.174 23.32l2.28-.2-.196-2.237 1.347-.118c1.699-.149 2.827-1.093 2.67-2.885-.092-1.057-.925-2.467-2.935-2.29l-3.813.333.647 7.397zm1.798-5.7l1.016-.09c.56-.049 1.08-.052 1.14.621.065.746-.553.842-1.144.893l-.88.077-.132-1.502zm5.257 5.083l2.28-.2-.226-2.58 1.212-.105c.901-.08 1.028.65 1.151 1.35.065.38.14.76.287 1.123l2.279-.2c-.237-.323-.325-1.203-.387-1.563-.164-.914-.607-1.565-1.25-1.749.732-.345 1.014-1.184.947-1.951-.123-1.399-1.304-2.016-2.6-1.902l-4.34.38.647 7.397zm1.786-5.836l1.067-.093c.87-.076 1.153.17 1.194.637.058.663-.516.786-.94.823l-1.192.104-.129-1.47zm5.652 5.185l2.28-.2-.648-7.397-2.28.2.648 7.397zm9.684-5.524c-.359-1.837-1.571-2.807-3.603-2.64-2.279.2-3.615 1.872-3.411 4.203.191 2.187 1.696 3.757 4.09 3.547 2.165-.19 3.238-1.88 3.108-3.372l-2.238.195c-.074.706-.328 1.271-1.094 1.338-1.067.094-1.5-.912-1.587-1.907-.087-.995.164-2.06 1.231-2.154.943-.082 1.222.718 1.287.984l2.217-.194zm1.151 4.576l6.237-.546-.165-1.896-3.958.347-.08-.922 3.49-.306-.153-1.761-3.492.305-.08-.922 3.843-.336-.166-1.896-6.123.536.647 7.397z" fill="#FFF"/><path d="M1.965 34h3.853v-1.171H3.373v-.57H5.53v-1.088H3.373v-.57h2.374v-1.17H1.965V34zm5.37 0h3.43v-1.171H8.742V29.43H7.334V34zm4.895 0h1.408v-4.57H12.23V34zm6.388 0h.89v-2.515h-1.87v.979h.621c-.07.34-.403.506-.73.506-.857 0-1.03-.75-1.03-1.178 0-.314-.032-1.331.935-1.331.332 0 .614.237.665.57h1.35c-.204-1.076-.94-1.71-2.105-1.71-1.03 0-2.253.698-2.253 2.439 0 1.3.832 2.349 2.183 2.349.499 0 .985-.173 1.299-.576l.045.467zm2.45 0h1.409v-4.57h-1.408V34zm4.404-1.94h.883c.333 0 .493.148.493.417 0 .352-.256.435-.55.435h-.826v-.851zM24.064 34h2.592c.806 0 1.6-.474 1.6-1.389 0-.672-.384-.998-.794-1.139.34-.186.564-.435.564-.896 0-.467-.256-1.146-1.46-1.146h-2.502V34zm1.408-3.482h.742c.288 0 .48.084.48.314 0 .294-.185.378-.48.378h-.742v-.692zM29.67 34h3.43v-1.171h-2.022V29.43H29.67V34zm4.896 0h3.853v-1.171h-2.445v-.57h2.157v-1.088h-2.157v-.57h2.375v-1.17h-3.783V34z" fill="#000"/></g></svg>