<svg width="41" height="37" viewBox="0 0 41 37" xmlns="http://www.w3.org/2000/svg"><title>Special Buy 40px37</title><g fill="none" fill-rule="evenodd"><path fill="#F6BC25" d="M.86.056H40.34v18.26H.86z"/><path fill="#1A1919" d="M3.54 17.598l33.172-3.478 1.977 18.838-33.173 3.48"/><path fill="#D8232A" d="M2.552 16.702l33.17-3.48 1.979 18.838-33.173 3.483-1.976-18.84"/><path d="M3.883 8.893c.033.713.475.941 1.144.941.474 0 .968-.17.968-.618 0-.534-.867-.637-1.74-.882-.864-.246-1.771-.636-1.771-1.746 0-1.324 1.331-1.84 2.467-1.84 1.204 0 2.416.585 2.425 1.95H5.798c.027-.551-.491-.73-.974-.73-.34 0-.764.12-.764.518 0 .466.874.551 1.756.797.873.245 1.754.652 1.754 1.746 0 1.535-1.305 2.027-2.636 2.027-1.39 0-2.62-.612-2.628-2.163h1.577M8.21 4.875h2.873c1.128 0 2.187.517 2.187 1.95 0 1.5-.856 2.085-2.187 2.085H9.786v2.018H8.21V4.875zM9.786 7.69h1.06c.492 0 .848-.204.848-.755 0-.568-.365-.797-.848-.797h-1.06V7.69zM13.918 4.875h4.825v1.263h-3.248v1.06h2.967v1.22h-2.967v1.154h3.331v1.356h-4.908V4.875M23.644 7.037c-.083-.611-.558-.933-1.218-.933-1.018 0-1.41.899-1.41 1.798 0 .898.392 1.796 1.41 1.796.736 0 1.16-.423 1.218-1.119h1.579c-.085 1.561-1.229 2.477-2.765 2.477-1.83 0-3.017-1.399-3.017-3.154s1.187-3.154 3.017-3.154c1.306 0 2.72.83 2.765 2.29h-1.579M25.964 4.875h1.576v6.053h-1.576zM30.178 4.875h1.602l2.264 6.053h-1.645l-.373-1.085h-2.11l-.381 1.085h-1.62l2.263-6.053zm.102 3.798h1.373l-.669-2.119h-.018l-.686 2.119zM34.403 4.875h1.577v4.697h2.824v1.356h-4.401V4.875" fill="#1A1919"/><path d="M6.719 20.615l4.547-.461c1.84-.186 3.144.284 3.327 2.087.096.944-.31 1.657-1.108 2.148 1.21.217 1.898 1.065 2.02 2.269.199 1.964-1.382 2.97-3.127 3.146l-4.683.473-.976-9.662zm2.52 3.697l2.151-.216c.744-.078 1.265-.472 1.184-1.283-.094-.923-.816-1.04-1.574-.963l-1.99.2.228 2.262zm.415 4.1l2.272-.232c.839-.084 1.542-.43 1.442-1.43-.1-.984-.762-1.317-1.669-1.226l-2.314.236.269 2.652zM24.722 24.864c.264 2.613-1.151 4.042-3.735 4.304-2.599.261-4.244-.843-4.507-3.47l-.608-6.007 2.124-.215.608 6.006c.106 1.057.482 2.071 2.202 1.896 1.516-.15 1.936-.864 1.791-2.298l-.608-6.007 2.125-.217.608 6.008M28.708 24.353l-4.158-5.54 2.398-.243 2.644 3.587 1.862-4.041 2.368-.24-2.985 6.315.374 3.708-2.122.216-.38-3.762" fill="#FFFFFE"/></g></svg>