<?xml version="1.0" encoding="utf-8"?>
<!-- Generator: Adobe Illustrator 24.3.0, SVG Export Plug-In . SVG Version: 6.00 Build 0)  -->
<svg version="1.1" id="Layer_1" xmlns="http://www.w3.org/2000/svg" xmlns:xlink="http://www.w3.org/1999/xlink" x="0px" y="0px"
	 viewBox="0 0 216 216" style="enable-background:new 0 0 216 216;" xml:space="preserve">
<style type="text/css">
	.st0{fill:#20c4f4;}
</style>
<g id="JcQ56r_1_">
	<g>
		<path class="st0" d="M43.5,179.6c-2.1,0-4,0-6,0c-2.1,0-3.2-1.1-3.2-3.2c0-26.4,0-52.9,0-79.3c0-2.3,1.2-3.4,3.5-3.4
			c8.2,0,16.5,0,24.7,0c0.3,0,0.5,0,0.8,0c-1.7-1.6-3.4-3-4.9-4.6c-4.8-5.3-7.2-11.6-7.3-18.7c0-0.9,0-1.8,0-2.6
			c0-2.8,2-4.8,4.8-4.8c8.1,0,16.2,0,24.4,0c8.4,0,16.8,0,25.4,0c0-1.3,0-2.5,0-3.7c0-0.2-0.3-0.5-0.5-0.6c-1.4-0.6-2.9-1.2-4.4-1.8
			c-0.3,0.6-0.5,1.2-0.8,1.8c-0.6,1.3-1.8,1.8-3.1,1.3c-1.2-0.5-1.7-1.8-1.2-3.1c1.1-2.8,2.2-5.5,3.4-8.3c0.5-1.3,1.9-1.8,3.1-1.4
			c1.1,0.4,1.6,1.8,1.1,3c-0.3,0.8-0.6,1.5-0.9,2.4c1,0.4,2,0.8,3.2,1.3c0-0.7,0-1.2,0-1.8c0-6.5,0-13,0-19.4
			c0-9.6,6.3-17.7,15.7-20.2c11.9-3.1,24.2,5.1,25.6,17.3c0.4,4,0.2,8.1,0.3,12.1c0,1.3-1.1,2.2-2.4,2.2c-1.3,0-2.2-0.9-2.2-2.2
			c0-3,0-6,0-9c0-8-5.4-14.5-13.2-16.2c-9-1.9-18.3,5-18.9,14.2c-0.3,5.3-0.2,10.6-0.2,15.9c0,2.3,0,4.6,0,7.1
			c1.1-0.5,2.1-0.9,3.2-1.3c-0.3-0.8-0.7-1.6-0.9-2.3c-0.5-1.3,0-2.6,1.2-3.1c1.2-0.5,2.5,0.1,3,1.4c1.1,2.7,2.3,5.4,3.4,8.2
			c0.6,1.4,0.1,2.7-1.1,3.2c-1.3,0.5-2.5,0-3.2-1.5c-0.2-0.5-0.4-0.9-0.7-1.6c-1.5,0.6-3.1,1.3-4.6,1.9c-0.2,0.1-0.4,0.4-0.4,0.6
			c0,1.1,0,2.2,0,3.5c2.4,0,4.8,0,7.1,0c14.2,0,28.5,0,42.7,0c2.6,0,4.6,1.9,4.8,4.6c0.4,9.1-2.3,17.1-9.1,23.4
			c-1,0.9-2.1,1.7-3.3,2.8c0.5,0,0.9,0,1.3,0c8.2,0,16.4,0,24.6,0c2.3,0,3.4,1.2,3.4,3.4c0,23.7,0,47.4,0,71.2c0,2.7,0,5.4,0,8.2
			c0,2-1.3,3.3-3.3,3.3c-1.9,0-3.8,0-5.9,0c0,2,0,4,0,5.9c0,5.6,0,11.2,0,16.8c0,1.3-0.6,1.8-2,1.8c-3.8,0-7.6,0-11.4,0
			c-1.4,0-2-0.5-2-1.9c0-2.6,0-5.3,0-7.9c0-2.8-1.1-4-4-4c-15.8,0-31.6,0-47.4,0c-14.5,0-29,0-43.5,0c-2.1,0-3.5,1.3-3.5,3.4
			c0,2.9,0,5.8,0,8.6c0,1.3-0.5,1.8-1.8,1.8c-3.8,0-7.7,0-11.5,0c-1.5,0-2-0.5-2-2c0-7,0-14.1,0-21.1
			C43.5,180.7,43.5,180.2,43.5,179.6z M110.3,175c22.4,0,44.6,0,66.8,0c0-25.6,0-51.1,0-76.6c-22.3,0-44.5,0-66.8,0
			C110.3,123.9,110.3,149.4,110.3,175z M38.9,98.3c0,25.6,0,51.1,0,76.7c22.3,0,44.4,0,66.6,0c0-25.6,0-51.1,0-76.7
			C83.3,98.3,61.2,98.3,38.9,98.3z M160.1,67.6c-34.9,0-69.6,0-104.4,0c0,1.3-0.1,2.4,0,3.6c0.1,1.2,0.2,2.5,0.4,3.7
			C57.8,85,67.8,93.6,78.1,93.6c19.5,0,39,0,58.5,0c6.9,0,12.7-2.5,17.4-7.6C158.8,80.9,160.6,74.7,160.1,67.6z M54.2,199.6
			c0-1.9,0.1-3.7,0-5.4c-0.3-4.7,3.3-8.5,8.4-8.5c13.4,0.1,26.9,0,40.3,0c16.9,0,33.8,0,50.6,0c4.9,0,8.2,3.3,8.2,8.2
			c0,1.9,0,3.7,0,5.6c2.1,0,4.1,0,6.1,0c0-6.6,0-13.2,0-19.8c-40,0-79.9,0-119.8,0c0,6.7,0,13.3,0,19.9c1.8,0,3.5,0,5.2,0
			C53.6,199.7,53.9,199.6,54.2,199.6z"/>
		<path class="st0" d="M123.3,109c3.8,0,6.9,3.2,6.9,7c0,3.8-3.2,6.9-7,6.9c-3.8,0-6.9-3.2-6.9-7C116.4,112.1,119.6,109,123.3,109z
			 M125.6,116.1c0.1-1.3-0.9-2.4-2.2-2.5c-1.2,0-2.3,1-2.4,2.2c-0.1,1.2,1,2.3,2.2,2.4C124.4,118.3,125.5,117.3,125.6,116.1z"/>
		<path class="st0" d="M85.7,116c0-3.8,3.1-7,6.9-7c3.9,0,6.9,3.2,6.9,7.2c0,3.6-3.4,6.7-7.2,6.7C88.8,122.8,85.7,119.6,85.7,116z
			 M94.9,116.1c0.1-1.3-0.8-2.3-2.1-2.5c-1.2-0.1-2.4,1-2.5,2.2c-0.1,1.2,1,2.3,2.2,2.4C93.7,118.3,94.8,117.3,94.9,116.1z"/>
	</g>
</g>
</svg>
