<?xml version="1.0" encoding="utf-8"?>
<!-- Generator: Adobe Illustrator 23.0.0, SVG Export Plug-In . SVG Version: 6.00 Build 0)  -->
<svg version="1.1"
	 id="Layer_1" inkscape:version="0.91 r13725" sodipodi:docname="Visa_2006.svg" xmlns:cc="http://creativecommons.org/ns#" xmlns:dc="http://purl.org/dc/elements/1.1/" xmlns:inkscape="http://www.inkscape.org/namespaces/inkscape" xmlns:rdf="http://www.w3.org/1999/02/22-rdf-syntax-ns#" xmlns:sodipodi="http://sodipodi.sourceforge.net/DTD/sodipodi-0.dtd" xmlns:svg="http://www.w3.org/2000/svg"
	 xmlns="http://www.w3.org/2000/svg" xmlns:xlink="http://www.w3.org/1999/xlink" x="0px" y="0px" viewBox="0 0 999.2 776"
	 style="enable-background:new 0 0 999.2 776;" xml:space="preserve">
<style type="text/css">
	.st0{fill:#00579F;}
	.st1{fill:#FAA61A;}
</style>
<sodipodi:namedview  bordercolor="#666666" borderopacity="1" gridtolerance="10" guidetolerance="10" id="namedview19" inkscape:current-layer="Layer_1" inkscape:cx="34.690897" inkscape:cy="131.15483" inkscape:pageopacity="0" inkscape:pageshadow="2" inkscape:window-height="705" inkscape:window-maximized="1" inkscape:window-width="1366" inkscape:window-x="-8" inkscape:window-y="-8" inkscape:zoom="0.35355339" objecttolerance="10" pagecolor="#ffffff" showgrid="false">
	</sodipodi:namedview>
<g id="g4158" transform="matrix(4.4299631,0,0,4.4299631,-81.165783,-105.04783)">
	<polygon id="polygon9" class="st0" points="116.1,146.8 97.8,146.8 109.2,76.1 127.5,76.1 	"/>
	<path id="path11" inkscape:connector-curvature="0" class="st0" d="M182.3,77.8c-3.6-1.4-9.3-3-16.4-3c-18.1,0-30.8,9.6-30.9,23.4
		c-0.1,10.2,9.1,15.8,16,19.2c7.1,3.5,9.5,5.7,9.5,8.8c-0.1,4.7-5.7,6.9-11,6.9c-7.3,0-11.2-1.1-17.2-3.8l-2.4-1.1l-2.6,15.9
		c4.3,2,12.2,3.7,20.4,3.8c19.2,0,31.7-9.5,31.8-24.2c0.1-8.1-4.8-14.2-15.4-19.3C158,101.2,154,99,154,95.7c0.1-3,3.3-6.1,10.5-6.1
		c5.9-0.2,10.3,1.3,13.6,2.7l1.7,0.8L182.3,77.8C182.3,77.8,182.3,77.8,182.3,77.8z"/>
	<path id="path13" inkscape:connector-curvature="0" class="st0" d="M206.6,121.7c1.5-4.1,7.3-19.8,7.3-19.8
		c-0.1,0.2,1.5-4.1,2.4-6.8l1.3,6.1c0,0,3.5,16.9,4.2,20.5C219,121.7,210.3,121.7,206.6,121.7L206.6,121.7z M229.2,76.1h-14.1
		c-4.4,0-7.7,1.3-9.6,5.9l-27.2,64.9h19.2c0,0,3.2-8.7,3.8-10.6c2.1,0,20.8,0,23.5,0c0.5,2.5,2.2,10.6,2.2,10.6H244L229.2,76.1
		L229.2,76.1L229.2,76.1z"/>
	<path id="path15" inkscape:connector-curvature="0" class="st0" d="M82.5,76.1l-17.9,48.2l-2-9.8c-3.3-11.3-13.7-23.5-25.3-29.6
		l16.4,61.8h19.3l28.7-70.6L82.5,76.1L82.5,76.1L82.5,76.1z"/>
	<path id="path17" inkscape:connector-curvature="0" class="st1" d="M48,76.1H18.5l-0.3,1.4c23,5.9,38.2,20,44.4,37L56.2,82
		C55.2,77.5,51.9,76.2,48,76.1L48,76.1z"/>
</g>
</svg>
