<?xml version="1.0" encoding="utf-8"?>
<!-- Generator: Adobe Illustrator 23.0.0, SVG Export Plug-In . SVG Version: 6.00 Build 0)  -->
<svg version="1.1" id="Layer_1" xmlns="http://www.w3.org/2000/svg" xmlns:xlink="http://www.w3.org/1999/xlink" x="0px" y="0px"
	 viewBox="0 0 50 50" style="enable-background:new 0 0 50 50;" xml:space="preserve">
<style type="text/css">
	.st0{fill:#20C4F4;}
</style>
<g>
	<path class="st0" d="M22.4,50c-0.9-0.2-1.9-0.2-2.8-0.5C12.4,47.6,7.7,43.1,6,35.9c-1.3-5.3-0.2-10.2,2.9-14.7
		C13.5,14.5,18,7.7,22.6,0.9c0.8-1.3,1.6-1.1,2.3,0c2.4,3.7,5,7.4,7.5,11.1c0.1,0.1,0.2,0.2,0.3,0.4c0.3-0.5,0.7-1,1-1.5
		c0.5-0.8,1-1.5,1.5-2.3c0.5-0.7,1.3-0.8,1.8,0c2.2,3.2,4.4,6.4,6.5,9.6c2.2,3.4,1.7,7.8-1.2,10.7c-0.3,0.3-0.4,0.6-0.4,1.1
		c0.4,4.5-0.7,8.7-3.4,12.4c-3.2,4.4-7.7,7-13.1,7.5c-0.1,0-0.2,0.1-0.3,0.1C24.1,50,23.2,50,22.4,50z M39.8,30.7
		c-0.2,0.1-0.4,0.1-0.5,0.2c-3.6,1.5-7.6,0.5-10.1-2.5c-2.4-3-2.6-7.2-0.5-10.4c0.8-1.1,1.5-2.3,2.3-3.4c0.2-0.3,0.2-0.5,0-0.8
		c-2.4-3.5-4.8-7.1-7.2-10.6c-0.1-0.1-0.2-0.3-0.3-0.4c-0.1,0.2-0.2,0.3-0.3,0.5c-4.2,6.2-8.5,12.6-12.8,19
		C7.8,26,6.9,30.1,7.6,34.6C9,43,17.2,49,25.6,47.9c6.6-0.9,12-5.5,13.7-12C39.8,34.2,40,32.5,39.8,30.7z M36,10.8
		c-0.1,0.1-0.1,0.1-0.1,0.2c-1.9,2.8-3.7,5.5-5.6,8.3c-0.9,1.3-1.2,2.8-1,4.3c0.3,2.8,2.3,5.1,5,5.8c2.7,0.7,5.6-0.4,7.2-2.7
		c1.6-2.3,1.6-5.3,0-7.7c-0.8-1.2-1.6-2.4-2.5-3.6C38,13.9,37,12.4,36,10.8z"/>
	<path class="st0" d="M12.9,23.5c0.3,0.3,0.7,0.4,0.9,0.7c0.3,0.3,0.2,0.7-0.1,1.1c-0.5,1-1.2,1.9-1.5,2.9C10,34.2,13,40.6,19,42.8
		c0.2,0.1,0.4,0.1,0.6,0.2c0.6,0.2,0.8,0.7,0.6,1.3c-0.2,0.5-0.7,0.8-1.3,0.6c-1.2-0.5-2.4-1-3.5-1.7C9.1,38.9,7.6,30.3,12,24.3
		C12.2,24,12.5,23.8,12.9,23.5z"/>
	<path class="st0" d="M22.3,45.7c-0.6,0-1-0.4-1-1c0-0.5,0.4-1,1-1c0.5,0,1,0.5,1,1C23.2,45.3,22.8,45.7,22.3,45.7z"/>
	<path class="st0" d="M30.5,22.3c0.1-0.4,0.2-1.1,0.5-1.7c0.2-0.6,0.8-0.8,1.3-0.6c0.5,0.2,0.7,0.7,0.5,1.3
		c-0.6,1.7-0.2,3.1,1.2,4.2c0.5,0.4,0.5,0.9,0.2,1.4c-0.3,0.4-0.9,0.5-1.4,0.2C31.3,25.9,30.6,24.4,30.5,22.3z"/>
	<path class="st0" d="M36,26.1c0.6,0,1,0.5,1,1S36.5,28,36,28s-1-0.5-1-1S35.4,26.1,36,26.1z"/>
</g>
</svg>
