<?xml version="1.0" encoding="utf-8"?>
<!-- Generator: Adobe Illustrator 23.0.0, SVG Export Plug-In . SVG Version: 6.00 Build 0)  -->
<svg version="1.1" id="Layer_1" xmlns="http://www.w3.org/2000/svg" xmlns:xlink="http://www.w3.org/1999/xlink" x="0px" y="0px"
	 viewBox="0 0 50 50" style="enable-background:new 0 0 50 50;" xml:space="preserve">
<style type="text/css">
	.st0{fill:#20C4F4;}
</style>
<g>
	<path class="st0" d="M13,36.6c0-0.5,0-0.9,0-1.4c0-1.9,1-3,2.8-3.3c0.1,0,0.1,0,0.3-0.1c0-0.2,0-0.4,0-0.7c0-5.8-0.1-11.5,0-17.3
		c0.1-5.6,2.6-9.8,7.6-12.4c8.3-4.3,18.4,1,19.8,10.3c0,0.3,0.1,0.6,0.1,0.9c0,0.4,0,0.8,0.4,1.1c0.2,0.1,0.2,0.5,0.2,0.8
		c0,1.1,0,2.2,0,3.3c0,0.8-0.4,1.2-1.2,1.2c-1.8,0-3.6,0-5.4,0c-0.8,0-1.2-0.4-1.2-1.2c0-1.1,0-2.2,0-3.3c0-0.3,0.1-0.6,0.2-0.8
		c0.4-0.3,0.3-0.6,0.2-0.9c-0.7-3.2-3.7-5.5-6.9-5.4c-3.4,0.1-6.3,2.5-6.8,5.8C23,13.6,23,14,23,14.4c0,5.6,0,11.2,0,16.9
		c0,0.1,0,0.3,0,0.4c0.3,0.1,0.6,0.1,0.9,0.2c1.3,0.4,2.3,1.5,2.3,2.9c0,4.6,0,9.3,0,13.9c0,0.8-0.4,1.2-1.2,1.2
		c-3.6,0-7.3,0-10.9,0c-0.8,0-1.2-0.4-1.2-1.3c0-1.7,0-3.4,0-5.1c0-0.2,0-0.4,0-0.8c-0.2,0-0.4,0-0.6,0c-1.6,0-3.3,0-4.9,0
		c-1.7,0-2.9-1.1-3.1-2.7c-0.2-1.4,0.6-2.9,2-3.4c0.4-0.1,0.9-0.2,1.3-0.2c1.5,0,3.1,0,4.6,0C12.5,36.6,12.7,36.6,13,36.6z
		 M20.9,31.8c0-0.3,0-0.5,0-0.7c0-5.4,0-10.8,0-16.1c0-0.6,0-1.2,0.1-1.8c0.5-4.9,5.5-8.6,10.3-7.8c4.3,0.7,7.3,4,7.8,7.7
		c0,0.1,0.2,0.3,0.3,0.3c0.6,0,1.3,0,2,0c-0.1-0.6-0.1-1.2-0.2-1.8c-1-6-7.1-10.3-13.2-9.2c-5.8,1-9.7,5.7-9.7,11.6
		c0,5.8,0,11.5,0,17.3c0,0.2,0,0.4,0,0.6C19.2,31.8,20,31.8,20.9,31.8z M15.2,36.6c1.2,0,2.3,0,3.4,0c1.6,0,2.8,1.2,3,2.9
		c0.2,1.5-0.8,2.9-2.3,3.3c-0.4,0.1-0.8,0.1-1.2,0.1c-0.9,0-1.9,0-2.8,0c0,1.7,0,3.3,0,4.9c3,0,5.9,0,8.9,0c0-1.5,0-3.1,0-4.6
		c0-2.7,0-5.4,0-8.1c0-0.7-0.3-1.1-0.9-1.1c-2.4,0-4.7,0-7.1,0c-0.5,0-0.9,0.3-0.9,0.8C15.2,35.4,15.2,36,15.2,36.6z M13,40.7
		c1.8,0,3.6,0,5.4,0c0.6,0,1.1-0.4,1.1-1s-0.4-1-1-1c-0.1,0-0.3,0-0.4,0c-1.3,0-2.6,0-3.9,0c-2,0-4,0-6,0c-0.1,0-0.3,0-0.4,0
		c-0.6,0-1.1,0.4-1.1,1s0.4,1,1.1,1C9.4,40.7,11.2,40.7,13,40.7z M42.1,15.6c-1.2,0-2.3,0-3.4,0c0,0.4,0,0.8,0,1.3
		c1.2,0,2.3,0,3.4,0C42.1,16.4,42.1,16,42.1,15.6z"/>
	<path class="st0" d="M41.5,34.2c0,0.6-0.5,1.1-1.1,1.1s-1.1-0.5-1.1-1.1s0.5-1.1,1.1-1.1C41,33.1,41.5,33.6,41.5,34.2z"/>
	<path class="st0" d="M40.4,31.2c-0.6,0-1.1-0.5-1.1-1.1s0.5-1.1,1.1-1.1s1.1,0.5,1.1,1.1C41.5,30.6,41,31.1,40.4,31.2z"/>
	<path class="st0" d="M39.2,21.9c0,0.6-0.5,1.1-1.1,1.1S37,22.5,37,21.9s0.5-1.1,1.1-1.1S39.2,21.3,39.2,21.9z"/>
	<path class="st0" d="M41.5,21.9c0,0.6-0.5,1.1-1.1,1.1s-1.1-0.5-1.1-1.1s0.5-1.1,1.1-1.1S41.5,21.3,41.5,21.9z"/>
	<path class="st0" d="M43.8,21.9c0,0.6-0.5,1.1-1.1,1.1s-1.1-0.5-1-1.1c0-0.6,0.5-1.1,1.1-1.1C43.3,20.8,43.8,21.3,43.8,21.9z"/>
	<path class="st0" d="M40.4,27.1c-0.6,0-1.1-0.5-1.1-1.1s0.5-1.1,1.1-1.1s1.1,0.5,1.1,1.1S41,27.1,40.4,27.1z"/>
	<path class="st0" d="M37.1,31.2c-0.6,0-1.1-0.5-1.1-1.1s0.5-1.1,1.1-1.1s1.1,0.5,1.1,1C38.2,30.6,37.8,31.1,37.1,31.2z"/>
	<path class="st0" d="M43.6,29c0.6,0,1.1,0.5,1.1,1.1s-0.5,1.1-1.1,1.1s-1.1-0.5-1.1-1C42.5,29.5,43,29,43.6,29z"/>
	<path class="st0" d="M35.6,34.2c0-0.6,0.5-1.1,1.1-1.1s1,0.5,1.1,1.1c0,0.6-0.5,1.1-1.1,1.1C36,35.3,35.6,34.8,35.6,34.2z"/>
	<path class="st0" d="M45.2,34.2c0,0.6-0.5,1.1-1.1,1.1s-1.1-0.5-1-1.1c0-0.6,0.5-1.1,1.1-1C44.7,33.1,45.2,33.6,45.2,34.2z"/>
	<path class="st0" d="M35.1,38.2c0-0.6,0.5-1.1,1.1-1.1s1.1,0.5,1.1,1.1s-0.5,1.1-1.1,1.1C35.5,39.3,35.1,38.8,35.1,38.2z"/>
	<path class="st0" d="M38.7,26c0,0.6-0.5,1.1-1.1,1.1s-1.1-0.5-1.1-1.1s0.5-1.1,1.1-1.1S38.7,25.4,38.7,26z"/>
	<path class="st0" d="M44.2,26c0,0.6-0.5,1.1-1.1,1.1S42,26.6,42,26s0.5-1.1,1.1-1.1S44.2,25.4,44.2,26z"/>
	<path class="st0" d="M40.4,39.3c-0.6,0-1.1-0.5-1.1-1.1s0.5-1.1,1.1-1.1s1.1,0.5,1.1,1.1S41,39.3,40.4,39.3z"/>
	<path class="st0" d="M45.7,38.3c0,0.6-0.5,1.1-1.1,1.1s-1.1-0.5-1.1-1.1s0.5-1.1,1.1-1.1S45.7,37.7,45.7,38.3z"/>
</g>
</svg>
