<?xml version="1.0" encoding="utf-8"?>
<!-- Generator: Adobe Illustrator 23.0.0, SVG Export Plug-In . SVG Version: 6.00 Build 0)  -->
<svg version="1.1" id="Layer_1" xmlns="http://www.w3.org/2000/svg" xmlns:xlink="http://www.w3.org/1999/xlink" x="0px" y="0px"
	 viewBox="0 0 50 50" style="enable-background:new 0 0 50 50;" xml:space="preserve">
<style type="text/css">
	.st0{fill:#20C4F4;}
</style>
<g>
	<path class="st0" d="M0,29.4c0.3-0.3,0.6-0.6,0.8-0.9c9.3-9.3,18.7-18.7,28-28c0.4-0.4,0.8-0.6,1.4-0.4C36,1.2,41.7,2.4,47.5,3.5
		c0.6,0.1,1.2,0.2,1.8,0.4C49.8,4,50,4.3,50,4.8c0,1.4,0,2.9,0,4.3c0,0.4-0.1,0.7-0.4,1c-1.2,1.2-2.4,2.3-3.5,3.5
		c-0.1,0.1-0.2,0.3-0.4,0.5c0.8,0.2,1.5,0.3,2.2,0.4c0.5,0.1,1,0.2,1.4,0.3c0.6,0.1,0.8,0.4,0.8,0.9c0,1.5,0,3,0,4.4
		c0,0.3-0.2,0.7-0.4,0.9c-2.3,2.3-4.5,4.6-6.8,6.8C35.6,35,28.5,42.1,21.4,49.2c-0.3,0.3-0.5,0.5-0.8,0.8c-0.2,0-0.4,0-0.6,0
		c-0.1,0-0.2-0.1-0.3-0.1C13.5,48.7,7.3,47.4,1,46.2c-0.3-0.1-0.7-0.2-1-0.6c0-1.8,0-3.5,0-5.3c1.4-1.5,2.9-2.9,4.4-4.4
		c-1.2-0.2-2.3-0.4-3.4-0.7c-0.3-0.1-0.6-0.3-0.9-0.5C0,32.9,0,31.1,0,29.4z M17.3,32.2c0-0.2,0.1-0.2,0.1-0.3
		c1.1-4.9,2.8-9.5,5.2-13.9c2.6-4.8,5.9-9.1,9.7-12.9c0.8-0.8,1.5-1.6,2.3-2.5C34,2.4,33.5,2.4,33,2.2c-0.4-0.1-0.6,0-0.8,0.2
		c-1.3,1.3-2.6,2.6-3.9,3.9c-7.1,7.1-13.2,15.1-18.2,23.8c-0.1,0.1-0.2,0.3-0.3,0.5C12.3,31.2,14.8,31.7,17.3,32.2z M39.8,3.6
		c-1.1-0.2-2-0.4-2.9-0.6c-0.3-0.1-0.4,0-0.6,0.2c-1.3,1.3-2.5,2.7-3.8,4c-5.9,6.2-10.2,13.4-12.6,21.7c-0.4,1.2-0.6,2.4-1,3.6
		c0.2,0.1,0.3,0.1,0.5,0.1c0.6,0.2,0.9,0,1.4-0.4c1.8-1.9,3.7-3.8,5.6-5.6c0.2-0.2,0.4-0.6,0.4-0.9c0.2-1.1,0.3-2.3,0.6-3.5
		c1.4-6,4.4-11.1,8.9-15.2C37.3,5.9,38.5,4.8,39.8,3.6z M28.3,24.3c6.5-6.5,12.8-12.8,19.2-19.2c-0.1,0-0.2-0.1-0.3-0.1
		c-1.7-0.3-3.4-0.7-5.1-1c-0.3-0.1-0.5,0-0.8,0.2c-1.6,1.5-3.1,2.9-4.7,4.4c-3.3,3.1-5.7,6.9-7.2,11.2C29,21.3,28.7,22.8,28.3,24.3z
		 M2.4,29.2c1.8,0.4,3.5,0.7,5.2,1.1c0.5,0.1,0.6,0,0.9-0.4c3-5.3,6.4-10.3,10.2-15.1c3.5-4.5,7.5-8.5,11.5-12.5
		c0.1-0.1,0.3-0.2,0.6-0.4c-0.6-0.3-0.9-0.2-1.2,0.1c-8.9,8.9-17.8,17.8-26.7,26.8C2.7,28.9,2.6,29,2.4,29.2z M21.1,36.3
		c0.2-0.2,0.3-0.3,0.4-0.4c1.3-1.3,2.6-2.6,3.9-3.9C33,24.5,40.5,17,48.1,9.4c0.1-0.1,0.3-0.3,0.4-0.4c0-0.8,0-1.5,0-2.3h-0.1
		C48.3,6.8,48.2,7,48,7.1c-2.9,2.9-5.9,5.9-8.8,8.8c-5.9,5.9-11.8,11.8-17.7,17.7c-0.1,0.1-0.3,0.4-0.3,0.6
		C21.1,34.8,21.1,35.5,21.1,36.3z M21.1,47.2l0.1,0.1c0.1-0.1,0.2-0.3,0.3-0.4c2.3-2.3,4.6-4.6,6.8-6.8c6.6-6.6,13.2-13.2,19.7-19.7
		c0.1-0.1,0.3-0.3,0.3-0.4c0-0.7,0-1.5,0-2.3c-0.2,0.2-0.3,0.3-0.5,0.4c-5.7,5.7-11.5,11.5-17.2,17.2c-3.1,3.1-6.2,6.2-9.3,9.4
		C21.2,44.8,21,45,21,45.2C21.1,45.7,21.1,46.5,21.1,47.2z M18.2,43.3c0.5,0.1,0.9,0.1,1.3,0.3c0.4,0.1,0.7,0,1-0.3
		c4-4,8-8,11.9-11.9c0.3-0.3,0.5-0.6,0.5-1c0.1-0.6,0.2-1.2,0.3-1.8c0.2-0.9,0.5-1.9,0.8-2.8l-0.1-0.1c-0.1,0.1-0.2,0.3-0.3,0.4
		c-4.1,4.1-8.1,8.1-12.2,12.2c-0.3,0.3-0.6,0.8-1.2,0.8c-0.1,0-0.1,0.1-0.2,0.2C19.3,40.5,18.6,41.8,18.2,43.3z M1.6,30.6
		c0,1,0,1.9,0,2.8c0,0.1,0.2,0.3,0.4,0.3c5,1,10,2,14.9,3c0.9,0.2,1.7,0.3,2.6,0.5c0-0.9,0-1.8,0-2.6c0-0.3-0.1-0.5-0.4-0.5
		c-4-0.8-8-1.6-12-2.4C5.3,31.4,3.4,31,1.6,30.6z M1.6,41.6c0,1,0,1.9,0,2.8c0,0.1,0.2,0.3,0.4,0.3c4.8,1,9.6,1.9,14.5,2.9
		c1,0.2,2.1,0.4,3.1,0.6c0-0.9,0-1.8,0-2.6c0-0.3-0.1-0.5-0.4-0.5c-4-0.8-8-1.6-12-2.4C5.3,42.3,3.4,41.9,1.6,41.6z M34.8,28.8
		c4.2-4.2,8.4-8.5,12.7-12.7c-0.9-0.2-1.8-0.3-2.7-0.6c-0.4-0.1-0.6,0-0.9,0.3c-1.5,1.5-3,3-4.6,4.6c-1.1,1.1-2.1,2.4-2.8,3.8
		C35.7,25.6,35.1,27.1,34.8,28.8z M18.4,38.7c-0.6-0.1-1.2-0.2-1.8-0.4c-1.7-0.3-3.3-0.7-5-1c-0.2,0-0.5,0-0.5,0.2
		c-0.5,1.3-1,2.7-1.6,4.1c2.4,0.5,4.8,0.9,7,1.4C17.2,41.5,17.8,40.1,18.4,38.7z M2.4,40.1c2,0.4,3.8,0.8,5.6,1.1
		c0.5-1.5,1-2.9,1.5-4.3c-1-0.2-2-0.4-3-0.6c-0.1,0-0.3,0-0.4,0.1C4.9,37.6,3.7,38.8,2.4,40.1z"/>
</g>
</svg>
