<?xml version="1.0" encoding="utf-8"?>
<!-- Generator: Adobe Illustrator 23.0.0, SVG Export Plug-In . SVG Version: 6.00 Build 0)  -->
<svg version="1.1" id="Layer_1" xmlns="http://www.w3.org/2000/svg" xmlns:xlink="http://www.w3.org/1999/xlink" x="0px" y="0px"
	 viewBox="0 0 50 50" style="enable-background:new 0 0 50 50;" xml:space="preserve">
<style type="text/css">
	.st0{fill:#20C4F4;}
</style>
<g>
	<path class="st0" d="M10.5,39.5c-2.1,0-4.2,0-6.2,0c-1.1,0-2.2,0-3.3,0c-0.7,0-1-0.3-1-1c0-1,0-1.9,0-2.9c0-0.2,0.1-0.5,0.2-0.7
		C3.9,26.5,7.6,18,11.3,9.6c0.2-0.5,0.6-0.7,1.1-0.7c1.1,0,2.3,0,3.4,0c0.4,0,0.6-0.1,0.7-0.5C16.6,8,16.8,7.6,17,7.2
		c0.2-0.5,0.5-0.8,1.1-0.8c3.3,0,6.6,0,9.8,0c5.1,0,10.2,0,15.4,0c0.9,0,1.2,0.2,1.2,1.2c0,0.4,0,0.8,0,1.2c0.2,0,0.4,0,0.5,0
		c1.4,0,2.7,0,4.1,0c0.8,0,1,0.3,1,1c0,10.9,0,21.8,0,32.7c0,0.7-0.3,1-1,1c-12.5,0-25,0-37.5,0c-0.7,0-1-0.3-1-1
		C10.5,41.6,10.5,40.6,10.5,39.5z M48.4,39.5c-0.2,0-0.4,0-0.6,0c-2.4,0-4.8,0-7.3,0c-0.7,0-1-0.3-1-1c0-0.9,0-1.8,0-2.8
		c0-0.8,0.3-1.1,1.1-1.1c0.7,0,1.4,0,2.1,0c0-0.6,0-1.1,0-1.6c-11.3,0-22.5,0-33.8,0c0,0.7,0,1.4,0,2.1c0,0.8-0.3,1.1-1.1,1.1
		c-1.8,0-3.6,0-5.4,0c-0.2,0-0.5,0-0.7,0c0,0.6,0,1.1,0,1.6c0.2,0,0.4,0,0.6,0c2.9,0,5.8,0,8.8,0c0.8,0,1.1,0.3,1.1,1.1
		c0,1,0,1.9,0,2.9c12.1,0,24.2,0,36.3,0C48.4,41.1,48.4,40.4,48.4,39.5z M48.4,37.9c0-9.2,0-18.3,0-27.4c-1.4,0-2.7,0-4,0
		c0,0.2,0,0.4,0,0.6c0,7.5,0,15,0,22.5c0,2.9,0.3,2.6-2.6,2.6c-0.2,0-0.4,0-0.6,0c0,0.6,0,1.1,0,1.6C43.6,37.9,45.9,37.9,48.4,37.9z
		 M15.6,10.5c-0.9,0-1.7,0-2.5,0c-0.4,0-0.5,0.1-0.7,0.4C9,18.7,5.6,26.4,2.3,34.2c-0.1,0.1-0.1,0.3-0.2,0.4c1.8,0,3.5,0,5.2,0
		c0-0.7,0-1.3,0-1.9c0-0.4,0.1-0.8,0.2-1.2c1.9-5.1,3.9-10.1,5.9-15.2C14.1,14.4,14.9,12.5,15.6,10.5z M9.3,31.4c1.6,0,3.1,0,4.6,0
		c0-0.1,0.1-0.3,0.1-0.4c0.5-1.8,1-3.7,1.5-5.5s1.8-2.8,3.6-2.9c1.1,0,1.9-0.7,2-1.8c0.1-1.2,0.2-2.3,0.3-3.5c0.2-1.5-0.1-2.9-1-4.1
		c-0.6-0.8-1-1.8-1.1-2.8c-0.1-0.7-0.1-1.5-0.1-2.2c-0.1,0-0.2,0-0.3,0c-0.4-0.2-0.7,0-0.9,0.5c-0.3,1-0.7,1.9-1.1,2.9
		c-0.1,0.3-0.1,0.5,0.1,0.8c0.9,1.1,1.4,2.3,1.5,3.8c0.1,3.2-2.1,5.9-5.3,6.3c-0.4,0.1-0.6,0.2-0.7,0.6c-0.6,1.6-1.3,3.3-1.9,4.9
		C10.1,29.1,9.7,30.3,9.3,31.4z M37.9,31.4c0-2.3,0.5-4.5,1.5-6.5c0.1-0.2,0.1-0.4,0.1-0.6c0-2.5,0-5,0-7.5c0-1.2-0.4-2.2-1.4-3
		c-1.2-1-1.8-2.3-1.8-3.9c0-0.6,0-1.2,0-1.9c-0.5,0-1,0-1.5,0c-0.1,0-0.3,0.2-0.3,0.3c-0.2,0.6-0.3,1.3-0.4,1.9
		c-0.5,2.2,0,4.1,1.6,5.7c0.8,0.8,1.2,1.8,1.3,2.9c0.1,0.7,0.1,1.4,0.1,2.1c0,1.3-0.5,2.3-1.5,3.1c-0.6,0.4-0.9,1-0.9,1.8
		c0,1.7,0,3.5,0,5.2c0,0.1,0,0.3,0,0.4C35.8,31.4,36.8,31.4,37.9,31.4z M21,8.1c-0.1,1.9,0,2.9,1.2,4.6c0.8,1.1,1.1,2.3,1,3.6
		c-0.1,1.5-0.2,3.1-0.4,4.6c-0.2,1.8-1.7,3.2-3.5,3.3c-1.3,0.1-1.9,0.6-2.2,1.8c-0.5,1.7-0.9,3.4-1.4,5.1c0,0.1,0,0.2-0.1,0.4
		c1.5,0,3,0,4.5,0c0-0.1,0-0.2,0-0.3c-0.1-3.1,1-5.7,3.4-7.8c1.3-1.1,2-2.5,2.2-4.2c0.1-1.7,0.1-3.4,0.1-5.1c0-1-0.4-1.8-1-2.6
		c-0.5-0.6-0.9-1.3-1.2-2.1c-0.2-0.4-0.2-0.8-0.3-1.3C22.6,8.1,21.8,8.1,21,8.1z M23.4,31.4c0-0.3,0-0.6,0-0.9
		c0.1-2.1,1.5-4.1,3.6-4.7c0.8-0.2,1.2,0.1,1.2,0.9c0,1.4,0,2.7,0,4.1c0,0.2,0,0.4,0,0.5c0.6,0,1.1,0,1.6,0c0-0.1,0-0.3,0-0.4
		c0-4.2,0.1-8.4,0-12.6c0-1.4-0.4-2.7-0.6-4.1c-0.3-1.4-0.6-2.9-0.9-4.3c-0.1-0.6,0-1.3,0-1.9c-1.2,0-2.2,0-3.2,0
		c0,0.8,0.3,1.5,1,2.3c0.9,1,1.4,2.2,1.4,3.5c0,1.4,0,2.9,0,4.3c0,0.5-0.1,1-0.2,1.5c-0.4,2.1-1.4,3.8-3,5.2c-2,1.7-2.6,4-2.4,6.5
		C22.3,31.4,22.8,31.4,23.4,31.4z M29.8,8.1c0,0.2,0,0.3,0,0.4c0,1.7,0.2,3.3,0.8,4.9c0.6,1.8,0.9,3.7,0.9,5.6c0,3.9,0,7.9,0,11.8
		c0,0.2,0,0.4,0,0.6c0.6,0,1.1,0,1.6,0c0-0.2,0-0.4,0-0.5c0-1.6,0-3.3,0-4.9c0-1.4,0.5-2.4,1.6-3.3c0.4-0.3,0.7-0.8,0.8-1.2
		c0.2-1.7,0.1-3.4-1.3-4.8c-1.6-1.6-2.1-3.6-1.8-5.8c0.1-0.9,0.3-1.9,0.5-2.8C31.9,8.1,30.9,8.1,29.8,8.1z M37.9,8.1
		c0,0.6,0,1.2,0,1.7c0,1.2,0.4,2.2,1.4,2.9c1.3,1,1.9,2.3,1.9,3.9c0,1.7,0,3.4,0,5.1c0,0.1,0,0.3,0,0.3c0.4-0.3,0.8-0.7,1.3-1.1
		c0.3-0.2,0.3-0.4,0.3-0.8c0-3.9,0-7.7,0-11.6c0-0.2,0-0.3,0-0.5C41.1,8.1,39.5,8.1,37.9,8.1z M42.7,31.4c0-2.8,0-5.6,0-8.5
		c-2.1,2.5-3.2,5.3-3.2,8.5C40.6,31.4,41.6,31.4,42.7,31.4z M13.3,20.9c1.8-0.5,2.9-1.5,3.4-3.1c0.4-1.4,0.2-2.7-0.6-4
		C15.2,16.2,14.3,18.5,13.3,20.9z M26.6,31.4c0-1.2,0-2.4,0-3.5c-1.2,0.7-1.8,2.1-1.5,3.5C25.6,31.4,26.1,31.4,26.6,31.4z"/>
</g>
</svg>
